STARTFONT 2.1
FONT -FreeType-Quattrocento-Medium-R-Normal--66-480-100-100-P-297-ISO10646-1
SIZE 48 100 100
FONTBOUNDINGBOX 77 76 -2 -18
COMMENT "Generated by fontforge, http://fontforge.sourceforge.net"
COMMENT ""
COMMENT "Converted from OpenType font "quattrocento.regular.ttf" by "otf2bdf 3.0"."
COMMENT ""
STARTPROPERTIES 19
FOUNDRY "FreeType"
FAMILY_NAME "Quattrocento"
WEIGHT_NAME "Medium"
SLANT "R"
SETWIDTH_NAME "Normal"
ADD_STYLE_NAME ""
PIXEL_SIZE 33
POINT_SIZE 480
RESOLUTION_X 100
RESOLUTION_Y 100
SPACING "P"
AVERAGE_WIDTH 297
CHARSET_REGISTRY "ISO10646"
CHARSET_ENCODING "1"
FONT_ASCENT 56
FONT_DESCENT 17
COPYRIGHT "Copyright (c) 2011, Pablo Impallari (www.impallari.com|impallari@gmail.com),  Copyright (c) 2011, Igino Marini. (www.ikern.com|mail@iginomarini.com),  Copyright (c) 2011, Brenda Gallo. (gbrenda1987@gmail.com),  with Reserved Font Name Quattrocento."
_OTF_FONTFILE "quattrocento.regular.ttf"
_OTF_PSNAME "Quattrocento"
ENDPROPERTIES
CHARS 245
STARTCHAR $0000
ENCODING 0
SWIDTH 0 0
DWIDTH 0 0
BBX 0 0 0 0
BITMAP
ENDCHAR
STARTCHAR $000D
ENCODING 13
SWIDTH 126 0
DWIDTH 8 0
BBX 0 0 0 0
BITMAP
ENDCHAR
STARTCHAR $0020
ENCODING 32
SWIDTH 120 0
DWIDTH 8 0
BBX 0 0 0 0
BITMAP
ENDCHAR
STARTCHAR $0021
ENCODING 33
SWIDTH 120 0
DWIDTH 8 0
BBX 6 47 5 0
BITMAP
04
3C
FC
FC
FC
FC
7C
7C
7C
7C
7C
7C
7C
78
78
78
78
78
78
78
78
78
78
78
78
78
78
78
78
38
38
38
38
38
38
30
20
00
00
00
00
38
7C
FC
FC
FC
78
ENDCHAR
STARTCHAR $0022
ENCODING 34
SWIDTH 156 0
DWIDTH 10 0
BBX 13 14 4 35
BITMAP
7038
F0F8
F078
F078
F078
F078
F078
F078
F070
E070
E070
E070
E070
E070
ENDCHAR
STARTCHAR $0023
ENCODING 35
SWIDTH 314 0
DWIDTH 21 0
BBX 36 44 3 0
BITMAP
0007E03E00
0007C03E00
0007C03E00
0007C03C00
0007807C00
0007807C00
000F807800
000F007800
000F007800
000F007800
000F00F000
000E00F000
001E00F000
001E00F000
3FFFFFFFF0
3FFFFFFFF0
3FFFFFFFF0
3FFFFFFFE0
003C01E000
003C01C000
003803C000
007803C000
007803C000
007803C000
0078038000
FFFFFFFFC0
FFFFFFFFC0
FFFFFFFFC0
FFFFFFFF80
00F00F0000
01E00F0000
01E00F0000
01E00F0000
01E00F0000
01E01E0000
03C01E0000
03C01E0000
03C01E0000
03C03E0000
07C03E0000
07C03C0000
07C07C0000
0F807C0000
0F807C0000
ENDCHAR
STARTCHAR $0024
ENCODING 36
SWIDTH 270 0
DWIDTH 18 0
BBX 30 58 3 -7
BITMAP
00078000
00078000
00078000
00078000
00078000
00078000
00078000
00078000
00FFFF00
03FFFFE0
0FFFFFE0
1FC387E0
3F0383E0
3E0381E0
7C0380C0
7C0380C0
7C038000
7C038000
7C038000
7C038000
7E038000
7E038000
3F838000
3FE38000
1FFF8000
0FFF8000
07FFF000
03FFFC00
00FFFF00
001FFFC0
0003FFE0
0003FFF0
00039FF0
000387F8
000383F8
000381FC
000380FC
000380FC
0003807C
0003807C
6003807C
7003807C
7003807C
700380F8
780380F8
780381F0
FC0383E0
FF078FC0
7FFFFF80
0FFFFE00
00FFF000
00078000
00078000
00078000
00078000
00078000
00078000
00078000
ENDCHAR
STARTCHAR $0025
ENCODING 37
SWIDTH 390 0
DWIDTH 26 0
BBX 47 46 3 0
BITMAP
0000000007C0
01F800000F80
07FE00001F00
1FFF00001E00
1E0F80003C00
380380003C00
7803C0007800
7001C000F000
7001E000E000
F000E001E000
E000E003C000
E000E0078000
E000E0070000
E000E00F0000
E000E01E0000
E000E03C0000
F000E03C0000
F001E0780000
7001C0F00000
7803C0E00000
3C0381E00000
3E0783C03F00
1FFF0780FFC0
0FFE0701FFE0
03F80F03C0F0
00001E078078
00001C070038
00003C0F003C
0000780E001C
0000F00E001C
0000E00E001C
0001E01E001E
0003C01E001E
0007801E001E
0007801E001E
000F001E001E
001E001E001C
003E000E001C
003C000E001C
0078000F003C
00F800070038
01F000078078
03E00003C0F0
07E00001FFE0
00000000FFC0
000000003F00
ENDCHAR
STARTCHAR $0026
ENCODING 38
SWIDTH 382 0
DWIDTH 25 0
BBX 44 45 4 0
BITMAP
001FC0000000
007FF8000000
01FFFC000000
03F07E000000
03C03E000000
07C01F000000
07800F000000
07800E000000
0F800E000000
0F800E000000
0F8000000000
0F8000000000
07C000000000
07C000000000
07C000000000
03E000000020
03F000000070
01F0007FFFE0
00F800FFFFC0
00FC01FFFF80
03FE01FFFF00
07FF031F0000
0FFF000F0000
1F8F800F0000
3F0FC0078000
3E07E0078000
7C03F0078000
7C01F8078000
F800FC078000
F8007E078000
F8003F078000
F0001F878000
F0000F878000
F0000FCF0000
F80007EF0000
F80003FF0000
F80001FE0000
FC0000FE0000
7E00007E0000
3F0001FF0000
1F8003FFC000
0FF01FEFE000
07FFFF87FC00
01FFFE01FFC0
003FF0007FC0
ENDCHAR
STARTCHAR $0027
ENCODING 39
SWIDTH 90 0
DWIDTH 6 0
BBX 4 14 4 35
BITMAP
70
F0
F0
F0
F0
F0
F0
F0
F0
E0
E0
E0
E0
E0
ENDCHAR
STARTCHAR $0028
ENCODING 40
SWIDTH 134 0
DWIDTH 9 0
BBX 14 60 3 -8
BITMAP
0004
000C
0018
0038
0070
00E0
00E0
01C0
03C0
0380
0780
0F00
0F00
1E00
1E00
3E00
3E00
3C00
7C00
7C00
7C00
7800
F800
F800
F800
F800
F800
F800
F800
F800
F800
F800
F800
F800
F800
F800
F800
F800
7C00
7C00
7C00
7C00
3C00
3C00
3E00
1E00
1E00
0F00
0F00
0780
0780
0380
01C0
01E0
00E0
0070
0038
0018
000C
0004
ENDCHAR
STARTCHAR $0029
ENCODING 41
SWIDTH 134 0
DWIDTH 9 0
BBX 14 60 1 -8
BITMAP
8000
C000
6000
7000
3800
1C00
1E00
0E00
0700
0780
0780
03C0
03C0
01E0
01E0
01F0
00F0
00F0
00F8
00F8
00F8
007C
007C
007C
007C
007C
007C
007C
007C
007C
007C
007C
007C
007C
007C
007C
007C
007C
007C
00F8
00F8
00F8
00F0
00F0
01F0
01E0
01E0
03C0
03C0
0380
0780
0700
0E00
0E00
1C00
3800
3000
6000
C000
8000
ENDCHAR
STARTCHAR $002A
ENCODING 42
SWIDTH 216 0
DWIDTH 14 0
BBX 21 22 4 25
BITMAP
00F000
007000
007000
007020
307060
3870F0
7C31F8
7F33F0
1FB780
03FE00
00F800
00F800
03FE00
1FB7C0
7E33F8
FC71F8
787070
207030
007000
007000
007800
007800
ENDCHAR
STARTCHAR $002B
ENCODING 43
SWIDTH 246 0
DWIDTH 16 0
BBX 27 26 3 3
BITMAP
000E0000
000E0000
000E0000
000E0000
000E0000
000E0000
000E0000
000E0000
000E0000
000E0000
000E0000
7FFFFFE0
7FFFFFE0
7FFFFFC0
FFFFFFC0
000E0000
000E0000
000E0000
000E0000
000E0000
000E0000
000E0000
000E0000
000E0000
000E0000
000E0000
ENDCHAR
STARTCHAR $002C
ENCODING 44
SWIDTH 104 0
DWIDTH 7 0
BBX 7 12 3 -7
BITMAP
1C
7E
7E
7E
3E
3C
3C
38
78
70
60
C0
ENDCHAR
STARTCHAR $002D
ENCODING 45
SWIDTH 240 0
DWIDTH 16 0
BBX 23 4 4 14
BITMAP
7FFFFE
7FFFFE
7FFFFE
FFFFFE
ENDCHAR
STARTCHAR $002E
ENCODING 46
SWIDTH 112 0
DWIDTH 7 0
BBX 6 6 4 0
BITMAP
38
7C
FC
FC
FC
78
ENDCHAR
STARTCHAR $002F
ENCODING 47
SWIDTH 216 0
DWIDTH 14 0
BBX 23 51 3 -4
BITMAP
00003E
00003E
00007C
00007C
000078
000078
0000F8
0000F0
0000F0
0001E0
0001E0
0001E0
0003C0
0003C0
0003C0
000780
000780
000700
000F00
000F00
001E00
001E00
001E00
003C00
003C00
003C00
007800
007800
007000
00F000
00F000
01E000
01E000
01E000
03C000
03C000
038000
078000
078000
0F0000
0F0000
0F0000
1E0000
1E0000
3E0000
3E0000
3C0000
7C0000
7C0000
F80000
F80000
ENDCHAR
STARTCHAR $0030
ENCODING 48
SWIDTH 322 0
DWIDTH 21 0
BBX 35 45 4 0
BITMAP
0007FC0000
001FFF8000
007FFFC000
00FFFFF000
03FC07F800
03F001FC00
07E000FE00
0FC0007E00
1F80003F00
1F00001F80
3F00000F80
3E00000F80
3E00000FC0
7C000007C0
7C000007C0
7C000007E0
FC000003E0
F8000003E0
F8000003E0
F8000003E0
F8000003E0
F8000003E0
F8000003E0
F8000003E0
F8000003E0
F8000003E0
F8000003E0
F8000003E0
FC000003E0
7C000007E0
7C000007C0
7C000007C0
7E00000FC0
3E00000F80
3F00000F80
1F00001F00
1F80003F00
0FC0007E00
0FE000FE00
07F001FC00
03FC07F800
01FFFFF000
007FFFC000
003FFF0000
0007FC0000
ENDCHAR
STARTCHAR $0031
ENCODING 49
SWIDTH 180 0
DWIDTH 12 0
BBX 19 45 3 0
BITMAP
003000
007800
00F800
03F000
07F000
1FF000
3FF000
F9F000
81F000
01F000
01F000
01F000
01F000
01F000
01F000
01F000
01F000
01F000
01F000
01F000
01F000
01F000
01F000
01F000
01F000
01F000
01F000
01F000
01F000
01F000
01F000
01F000
01F000
01F000
01F000
01F000
01F000
01F000
01F000
01F000
01F800
01F800
03FC00
0FFF00
7FFFE0
ENDCHAR
STARTCHAR $0032
ENCODING 50
SWIDTH 270 0
DWIDTH 18 0
BBX 29 45 3 0
BITMAP
001FF000
00FFFE00
03FFFF00
07FFFF80
0FE03FC0
1F000FE0
3E0007E0
7C0003F0
780001F0
780001F0
780001F0
380001F0
300001F0
000001F0
000001F0
000003E0
000003E0
000007C0
000007C0
00000F80
00001F80
00003F00
00003E00
00007C00
0000FC00
0001F800
0003F000
0007E000
0007C000
000F8000
001F8000
003F0000
007E0000
00FC0000
01F80000
03F00018
07E00018
0FE00018
0FC00038
1F800078
3F0000F0
7FFFFFF0
FFFFFFF0
FFFFFFF0
FFFFFFF0
ENDCHAR
STARTCHAR $0033
ENCODING 51
SWIDTH 270 0
DWIDTH 18 0
BBX 29 45 4 0
BITMAP
003FC000
01FFF800
07FFFE00
0FFFFF00
1F807F80
3E001F80
7C000FC0
7C0007C0
780007C0
780007C0
700007C0
700007C0
300007C0
000007C0
000007C0
00000F80
00001F00
00003F00
00007E00
000FF800
000FF800
000FFE00
00003F80
00000FC0
000007E0
000003E0
000003F0
000001F0
000001F0
000001F8
000000F8
000000F8
000000F8
000001F8
E00001F0
E00001F0
E00003F0
F00003E0
F80007E0
FE001FC0
7F807F80
3FFFFF00
1FFFFE00
07FFF800
00FF8000
ENDCHAR
STARTCHAR $0034
ENCODING 52
SWIDTH 254 0
DWIDTH 17 0
BBX 30 45 1 0
BITMAP
00001F00
00003F00
00007F00
0000FF00
0000FF00
0001FF00
0003DF00
00039F00
00079F00
000F1F00
001E1F00
001C1F00
003C1F00
00781F00
00701F00
00F01F00
01E01F00
01C01F00
03C01F00
03801F00
07801F00
0F001F00
0E001F00
1E001F00
3C001F00
3C001F00
7FFFFFFC
FFFFFFF8
7FFFFFF8
7FFFFFF8
00001F00
00001F00
00001F00
00001F00
00001F00
00001F00
00001F00
00001F00
00001F00
00001F00
00001F00
00003F80
00003F80
0001FFE0
000FFFFC
ENDCHAR
STARTCHAR $0035
ENCODING 53
SWIDTH 270 0
DWIDTH 18 0
BBX 28 45 4 0
BITMAP
1FFFFF00
1FFFFF00
1FFFFF00
1E000700
1E000380
1E000180
1E000180
1E000180
1E000000
1E000000
3E000000
3E000000
3E000000
3C000000
3C000000
3C000000
3C000000
3C000000
3C7FE000
3FFFFC00
7FFFFF00
7FFFFF80
7F007FC0
38000FE0
000007E0
000003F0
000001F0
000001F0
000001F0
000001F0
000001F0
000001F0
000001F0
000001F0
E00001F0
E00001F0
E00003E0
F00007E0
F8000FC0
FC001F80
FF007F80
7FFFFE00
1FFFFC00
0FFFF000
01FF8000
ENDCHAR
STARTCHAR $0036
ENCODING 54
SWIDTH 270 0
DWIDTH 18 0
BBX 29 45 4 0
BITMAP
000FF800
007FFF00
00FFFF80
01FFFFE0
03F80FC0
07E003C0
0FC000C0
0F800000
1F000000
1E000000
3E000000
3C000000
3C000000
7C000000
7C000000
78000000
78000000
781FF000
787FFC00
79FFFF00
7BFFFF80
7BF01FC0
FF8007E0
FF0003F0
FE0001F0
FE0000F0
7C0000F8
7C0000F8
7C0000F8
7C000078
7C000078
7C000078
7C0000F8
7C0000F8
3C0000F8
3E0000F0
3E0001F0
1F0003F0
1F8003E0
0FC00FE0
07F03FC0
07FFFF80
01FFFF00
00FFFC00
001FE000
ENDCHAR
STARTCHAR $0037
ENCODING 55
SWIDTH 254 0
DWIDTH 17 0
BBX 32 45 2 0
BITMAP
7FFFFFFF
7FFFFFFF
7FFFFFFE
7FFFFFFE
780000FC
600000FC
600000F8
E00001F0
000001F0
000003E0
000003E0
000007C0
000007C0
00000F80
00000F80
00001F00
00001F00
00003E00
00003E00
00007C00
00007C00
0000F800
0000F800
0001F000
0001F000
0003E000
0003E000
0007C000
0007C000
000F8000
000F8000
001F0000
003F0000
003E0000
007E0000
007E0000
00FC0000
00FC0000
01FC0000
01F80000
03F80000
07F80000
07F00000
0FF00000
0FF00000
ENDCHAR
STARTCHAR $0038
ENCODING 56
SWIDTH 276 0
DWIDTH 18 0
BBX 30 45 4 0
BITMAP
003FE000
00FFF800
03FFFE00
07FFFF00
0FE03F80
1F800FC0
1F0007C0
1F0007E0
3F0003E0
3E0003E0
3E0003E0
3E0003E0
3E0003E0
3E0003E0
1F0007E0
1F0007C0
1F800FC0
0FC01F80
07F07F00
01FFFC00
01FFFC00
07FFFF00
0FE03FC0
1F800FE0
3F0007E0
7E0003F0
7C0001F0
7C0001F8
FC0000F8
F80000F8
F80000F8
F80000F8
F80000FC
F80000F8
F80000F8
FC0000F8
7C0001F8
7E0001F0
7F0003F0
3F8007E0
1FE03FE0
0FFFFFC0
07FFFF00
01FFFE00
003FE000
ENDCHAR
STARTCHAR $0039
ENCODING 57
SWIDTH 270 0
DWIDTH 18 0
BBX 29 45 3 0
BITMAP
003FE000
01FFF800
03FFFE00
0FFFFF00
0FE03F80
1F800FC0
3F0007C0
3E0003E0
7C0003E0
7C0001E0
780001F0
F80001F0
F80001F0
F80000F0
F80000F8
F80001F8
780001F8
780001F8
7C0001F8
7C0003F8
3E0007F8
3F000FF8
1FC03FF8
0FFFFEF8
07FFFCF8
01FFF8F8
003FC0F8
000000F8
000000F0
000000F0
000000F0
000000F0
000001F0
000001E0
000001E0
000003E0
000003C0
080007C0
0C000F80
1E001F00
1FC0FF00
1FFFFE00
0FFFFC00
03FFF000
007F8000
ENDCHAR
STARTCHAR $003A
ENCODING 58
SWIDTH 112 0
DWIDTH 7 0
BBX 7 31 4 0
BITMAP
38
7C
7E
FE
7C
38
00
00
00
00
00
00
00
00
00
00
00
00
00
00
00
00
00
00
00
38
7C
7E
FE
7C
38
ENDCHAR
STARTCHAR $003B
ENCODING 59
SWIDTH 120 0
DWIDTH 8 0
BBX 7 37 4 -7
BITMAP
3C
7E
7E
7E
7E
3C
00
00
00
00
00
00
00
00
00
00
00
00
00
00
00
00
00
00
00
3C
7E
7E
7E
3E
3C
3C
38
78
70
60
C0
ENDCHAR
STARTCHAR $003C
ENCODING 60
SWIDTH 210 0
DWIDTH 14 0
BBX 20 26 3 3
BITMAP
000020
000070
0000F0
0003F0
0007C0
000F80
003E00
00F800
01F000
07C000
0F8000
3E0000
FC0000
7C0000
3E0000
0F8000
03E000
01F000
007C00
003E00
000F80
0007E0
0001F0
0000F0
000030
000010
ENDCHAR
STARTCHAR $003D
ENCODING 61
SWIDTH 246 0
DWIDTH 16 0
BBX 23 14 5 9
BITMAP
7FFFFE
FFFFFC
FFFFFC
FFFFFC
000000
000000
000000
000000
000000
000000
7FFFFE
FFFFFC
FFFFFC
FFFFFC
ENDCHAR
STARTCHAR $003E
ENCODING 62
SWIDTH 210 0
DWIDTH 14 0
BBX 20 26 5 3
BITMAP
800000
C00000
F00000
F80000
7E0000
1F0000
07C000
03E000
00F800
003C00
001F00
0007C0
0003F0
0003E0
000F80
001F00
007C00
00F000
03E000
0F8000
1F0000
7C0000
F80000
E00000
C00000
800000
ENDCHAR
STARTCHAR $003F
ENCODING 63
SWIDTH 210 0
DWIDTH 14 0
BBX 22 47 3 0
BITMAP
01FC00
1FFF80
7FFFC0
FE03E0
F801F0
F000F8
F00078
E00078
60007C
40007C
00007C
00007C
00007C
00007C
0000F8
0000F8
0001F8
0003F0
0003F0
0007E0
000FC0
000FC0
001F80
003F00
003E00
007E00
007C00
007800
00F800
00F000
00F000
00F000
00F000
00F000
007000
006000
004000
000000
000000
000000
000000
00F000
01F800
01F800
01F800
01F800
00F000
ENDCHAR
STARTCHAR $0040
ENCODING 64
SWIDTH 360 0
DWIDTH 24 0
BBX 42 44 4 -7
BITMAP
000007800000
0000FFFE0000
0007FFFF8000
000FE00FE000
003F0003F000
007C0000F800
00F000007C00
01E000003E00
03C000001E00
078000000F00
0F0000000F00
0F0007E00780
1E003FF80780
1C00F87C0780
3C01F07C0380
3803E07C0380
7807C07C03C0
7807807C03C0
780F80780380
F00F00F80380
F00F00F80380
F01F00F80780
F01F00F80780
F01F01F00700
F01F01F00F00
F01F03F00E00
F01F03F01E00
F00F07F03C00
F00F0DF07800
F00FFDFFE000
F007F0FFC000
7801E07E0000
780000000000
380000000000
3C0000000000
1E0000000000
1F0000003000
0F8000006000
07C00001E000
03E00007C000
00FC003F0000
007FFFFC0000
001FFFF00000
0001FF000000
ENDCHAR
STARTCHAR $0041
ENCODING 65
SWIDTH 336 0
DWIDTH 22 0
BBX 47 45 -1 0
BITMAP
000000C00000
000003C00000
000007E00000
000007E00000
00000FF00000
00000FF00000
00001FF00000
00001DF80000
00001CF80000
000038F80000
000038FC0000
0000787C0000
0000707C0000
0000703E0000
0000F03E0000
0000E03F0000
0001E01F0000
0001C01F0000
0001C01F8000
0003C00F8000
0003800F8000
00078007C000
00070007C000
0007FFFFC000
000FFFFFE000
000FFFFFE000
000E0003F000
001E0001F000
001C0001F000
003C0001F800
003C0000F800
00380000F800
007800007C00
007000007C00
00F000007C00
00F000003E00
00E000003E00
01E000003F00
01E000001F00
03C000001F00
03C000001F80
07C000001FC0
0FE000003FE0
FFFE0001FFFE
FFFE0003FFFE
ENDCHAR
STARTCHAR $0042
ENCODING 66
SWIDTH 292 0
DWIDTH 19 0
BBX 33 45 3 0
BITMAP
E000000000
FFFFF80000
1FFFFF0000
07FFFF8000
07E00FC000
07E003E000
03E001F000
03E000F000
03E000F000
03E000F800
03E0007800
03E0007800
03E0007800
03E000F800
03E000F000
03E000F000
03E001E000
03E003E000
03E007C000
03E01F8000
03FFFE0000
03FFFFC000
03FFFFF000
03E003F800
03E000FC00
03E0007E00
03E0003F00
03E0001F00
03E0001F00
03E0000F80
03E0000F80
03E0000F80
03E0000F80
03E0000F80
03E0000F80
03E0000F80
03E0001F00
03E0001F00
03E0003E00
03E0007E00
07E000FC00
07E007F800
07FFFFF000
3FFFFF8000
FFFFFC0000
ENDCHAR
STARTCHAR $0043
ENCODING 67
SWIDTH 330 0
DWIDTH 22 0
BBX 37 45 4 0
BITMAP
00007FFC00
0007FFFFE0
001FFFFFF0
007F801FF0
00FC0003F0
01F00001E0
07E00000E0
07C0000060
0F80000000
1F00000000
1F00000000
3E00000000
3E00000000
7C00000000
7C00000000
7C00000000
FC00000000
F800000000
F800000000
F800000000
F800000000
F800000000
F800000000
F800000000
F800000000
F800000000
F800000000
FC00000000
FC00000000
FC00000000
7C00000000
7E00000000
7E00000000
3F00000000
3F80000000
1FC0000000
0FE0000000
07F0000008
07F8000038
03FE0000F0
00FFC00FF0
007FFFFFE0
001FFFFF80
0007FFFE00
0000FFE000
ENDCHAR
STARTCHAR $0044
ENCODING 68
SWIDTH 366 0
DWIDTH 24 0
BBX 43 45 3 0
BITMAP
800000000000
FFFFFFC00000
1FFFFFF80000
0FFFFFFE0000
07E000FF8000
07E0001FC000
03E00007F000
03E00001F800
03E00000F800
03E000007C00
03E000007E00
03E000003F00
03E000001F00
03E000001F80
03E000000F80
03E000000F80
03E000000FC0
03E000000FC0
03E0000007C0
03E0000007C0
03E0000007C0
03E0000007C0
03E0000007C0
03E0000007E0
03E0000007C0
03E0000007C0
03E0000007C0
03E0000007C0
03E000000FC0
03E000000FC0
03E000000F80
03E000000F80
03E000001F80
03E000001F00
03E000003F00
03E000007E00
03E000007C00
03E00000FC00
03E00001F800
03E00007F000
07E0000FC000
07F0007F8000
07FFFFFE0000
3FFFFFF80000
FFFFFF800000
ENDCHAR
STARTCHAR $0045
ENCODING 69
SWIDTH 284 0
DWIDTH 19 0
BBX 32 45 3 0
BITMAP
FFFFFFFE
FFFFFFFE
0FFFFFFE
07FFFFFE
07E0001E
03E0000E
03E0000E
03E0000E
03E00000
03E00000
03E00000
03E00000
03E00000
03E00000
03E00000
03E00000
03E000C0
03E00080
03E00180
03E00380
03FFFF80
03FFFF80
03FFFF80
03E00180
03E00180
03E00080
03E000C0
03E00000
03E00000
03E00000
03E00000
03E00000
03E00000
03E00000
03E00000
03E00000
03E00003
03E00003
03E00003
03E00007
07E00007
07E0003F
0FFFFFFF
1FFFFFFE
FFFFFFFE
ENDCHAR
STARTCHAR $0046
ENCODING 70
SWIDTH 262 0
DWIDTH 17 0
BBX 31 45 3 0
BITMAP
FFFFFFFE
FFFFFFFE
0FFFFFFE
07FFFFFE
07E0001E
03E0000E
03E0000E
03E0000E
03E00000
03E00000
03E00000
03E00000
03E00000
03E00000
03E00000
03E00000
03E000C0
03E00080
03E00180
03E00380
03FFFF80
03FFFF80
03FFFF80
03E00180
03E00180
03E00080
03E000C0
03E00000
03E00000
03E00000
03E00000
03E00000
03E00000
03E00000
03E00000
03E00000
03E00000
03E00000
03E00000
03E00000
07E00000
07F00000
0FF80000
FFFF8000
FFFF8000
ENDCHAR
STARTCHAR $0047
ENCODING 71
SWIDTH 352 0
DWIDTH 23 0
BBX 41 45 4 0
BITMAP
00007FFE0000
0003FFFFE000
001FFFFFF800
007F800FF800
00FC0001F800
01F00000F800
03E000007000
07C000003000
0F8000003000
1F0000000000
1F0000000000
3E0000000000
3E0000000000
7C0000000000
7C0000000000
7C0000000000
F80000000000
F80000000000
F80000000000
F80000000000
F80000000000
F80000000000
F80000000000
F80000000000
F80000000000
F80000000000
F800003FFF80
FC00003FFF80
FC000003FC00
FC000001FC00
7C000001F800
7E000000F800
7E000000F800
3F000000F800
3F800000F800
1F800000F800
0FC00000F800
0FF00000F800
07F80000F800
03FE0000F800
00FFC007F800
007FFFFFF800
001FFFFFF800
0007FFFF8000
00007FF80000
ENDCHAR
STARTCHAR $0048
ENCODING 72
SWIDTH 382 0
DWIDTH 25 0
BBX 45 45 3 0
BITMAP
FFFF000FFFF8
FFFF0007FFF8
0FF80000FF80
07F000007F00
07E000003F00
07E000003E00
03E000003E00
03E000003E00
03E000003E00
03E000003E00
03E000003E00
03E000003E00
03E000003E00
03E000003E00
03E000003E00
03E000003E00
03E000003E00
03E000003E00
03E000003E00
03E000003E00
03FFFFFFFE00
03FFFFFFFE00
03FFFFFFFE00
03E000003E00
03E000003E00
03E000003E00
03E000003E00
03E000003E00
03E000003E00
03E000003E00
03E000003E00
03E000003E00
03E000003E00
03E000003E00
03E000003E00
03E000003E00
03E000003E00
03E000003E00
03E000003E00
03E000003E00
07E000003F00
07E000007F00
0FF000007F80
FFFF0007FFF8
FFFF000FFFF8
ENDCHAR
STARTCHAR $0049
ENCODING 73
SWIDTH 164 0
DWIDTH 11 0
BBX 16 45 3 0
BITMAP
FFFF
FFFF
0FF8
07F0
07E0
07E0
03E0
03E0
03E0
03E0
03E0
03E0
03E0
03E0
03E0
03E0
03E0
03E0
03E0
03E0
03E0
03E0
03E0
03E0
03E0
03E0
03E0
03E0
03E0
03E0
03E0
03E0
03E0
03E0
03E0
03E0
03E0
03E0
03E0
03E0
07E0
07E0
0FF0
FFFF
FFFF
ENDCHAR
STARTCHAR $004A
ENCODING 74
SWIDTH 156 0
DWIDTH 10 0
BBX 18 55 1 -10
BITMAP
7FFFC0
3FFFC0
07FC00
03F800
01F800
01F000
01F000
01F000
01F000
01F000
01F000
01F000
01F000
01F000
01F000
01F000
01F000
01F000
01F000
01F000
01F000
01F000
01F000
01F000
01F000
01F000
01F000
01F000
01F000
01F000
01F000
01F000
01F000
01F000
01F000
01F000
01F000
01F000
01F000
01F000
01F000
01F000
01F000
01F000
01E000
01E000
01E000
03E000
03C000
03C000
078000
0F0000
FF0000
FC0000
F00000
ENDCHAR
STARTCHAR $004B
ENCODING 75
SWIDTH 330 0
DWIDTH 22 0
BBX 42 45 3 0
BITMAP
FFFF01FFFC00
1FF800FFF000
07F0003F8000
07E0001F0000
07E0003E0000
03E0003C0000
03E000780000
03E000700000
03E000E00000
03E001C00000
03E003C00000
03E007800000
03E00F000000
03E01E000000
03E03C000000
03E078000000
03E0F0000000
03E1E0000000
03E3C0000000
03EF80000000
03FFC0000000
03FFE0000000
03FBE0000000
03F1F0000000
03E1F8000000
03E0F8000000
03E07C000000
03E07E000000
03E03F000000
03E01F000000
03E00F800000
03E00FC00000
03E007E00000
03E003E00000
03E003F00000
03E001F80000
03E000FC0000
03E0007E0000
03E0007F0000
03E0003F8000
07E0001FC000
07E0000FE000
0FF00007FC00
FFFF0003FFC0
FFFF0000FFC0
ENDCHAR
STARTCHAR $004C
ENCODING 76
SWIDTH 262 0
DWIDTH 17 0
BBX 31 45 3 0
BITMAP
FFFF0000
FFFF0000
0FF80000
07F00000
07E00000
07E00000
03E00000
03E00000
03E00000
03E00000
03E00000
03E00000
03E00000
03E00000
03E00000
03E00000
03E00000
03E00000
03E00000
03E00000
03E00000
03E00000
03E00000
03E00000
03E00000
03E00000
03E00000
03E00000
03E00000
03E00000
03E00000
03E00000
03E00000
03E00000
03E00000
03E00000
03E00006
03E0000C
03E0000C
03E0000C
07E0000C
07E0003C
0FFFFFFC
1FFFFFFC
FFFFFFF8
ENDCHAR
STARTCHAR $004D
ENCODING 77
SWIDTH 450 0
DWIDTH 30 0
BBX 57 45 2 0
BITMAP
3FFF0000007FFC00
3FFF0000007FFC00
03FF0000007FC000
01FF0000007F8000
00FF800000FF8000
00FF800000FF0000
00FF800000FF0000
00FFC00001FF0000
00FFC00001FF0000
00F7E00001FF0000
00F7E00003CF0000
00F3E00003CF0000
00F3F000038F8000
00F3F000078F8000
00F1F000078F8000
00F1F800070F8000
00F1F8000F0F8000
01F0F8000E0F8000
01E0FC001E0F8000
01E07C001E0F8000
01E07E001C0F8000
01E07E003C0F8000
01E03E00380F8000
01E03F0038078000
01E03F0078078000
01E01F0070078000
01E01F80F0078000
01E00F80E007C000
01E00F80E007C000
01E00FC1E007C000
01E007C1C007C000
03C007E3C007C000
03C007E38007C000
03C003E78007C000
03C003F78007C000
03C001F70007C000
03C001FF0007C000
03C001FE0007C000
03C000FE0007E000
03C000FE0007E000
07C000FC0007E000
07E0007C0007F000
0FF00078000FF000
FFFE003800FFFF00
FFFE000000FFFF80
ENDCHAR
STARTCHAR $004E
ENCODING 78
SWIDTH 374 0
DWIDTH 25 0
BBX 44 45 3 0
BITMAP
FFF00007FFF0
3FF80003FFE0
0FF800007F00
07FC00003E00
07FC00003E00
03FE00003E00
03FE00003E00
03FF00003E00
03FF00003E00
03DF80003E00
03DFC0003E00
03CFC0003E00
03C7E0003E00
03C7E0003E00
03C3F0003E00
03C1F8003E00
03C1F8003E00
03C0FC003E00
03C07E003E00
03C07E003E00
03C03F003E00
03C01F003E00
03C01F803E00
03C00FC03E00
03C007C03E00
03C007E03E00
03C003F03E00
03C001F03E00
03C001F83E00
03C000FC3E00
03C0007E3E00
03C0007E3E00
03C0003F3E00
03C0001FBE00
03C0001FBE00
03C0000FFE00
03C00007FE00
03C00007FE00
03C00003FE00
03C00001FE00
07C00001FE00
07E00000FE00
0FE000007E00
FFFE00007E00
FFFF00003E00
ENDCHAR
STARTCHAR $004F
ENCODING 79
SWIDTH 382 0
DWIDTH 25 0
BBX 44 45 4 0
BITMAP
0000FFE00000
0007FFFC0000
001FFFFF0000
007FFFFFC000
00FF803FE000
01FC0007F800
03F00003FC00
07E00000FC00
0FC000007E00
1F8000003F00
1F0000001F80
3E0000001F80
3E0000000F80
7E0000000FC0
7C00000007C0
7C00000007E0
FC00000003E0
F800000003E0
F800000003E0
F800000003E0
F800000003E0
F800000003E0
F800000003F0
F800000003E0
F800000003E0
F800000003E0
F800000003E0
F800000003E0
FC00000003E0
FC00000007E0
7C00000007C0
7E0000000FC0
7E0000000F80
3F0000001F80
3F0000001F00
1F8000003F00
0FC000007E00
0FE00000FC00
07F80001F800
03FC0007F000
01FF803FE000
007FFFFFC000
003FFFFF0000
000FFFFC0000
0000FFE00000
ENDCHAR
STARTCHAR $0050
ENCODING 80
SWIDTH 276 0
DWIDTH 18 0
BBX 32 45 3 0
BITMAP
E0000000
FFFFF800
1FFFFF80
0FFFFFE0
07E007F0
07E001F8
03E000FC
03E0007E
03E0003E
03E0003E
03E0001E
03E0001F
03E0001F
03E0001F
03E0001F
03E0001E
03E0001E
03E0003E
03E0003E
03E0007C
03E00078
03E001F0
03E007E0
03FFFF80
03FFFE00
03FF8000
03E00000
03E00000
03E00000
03E00000
03E00000
03E00000
03E00000
03E00000
03E00000
03E00000
03E00000
03E00000
03E00000
03E00000
07E00000
07E00000
0FF00000
FFFF0000
FFFF0000
ENDCHAR
STARTCHAR $0051
ENCODING 81
SWIDTH 382 0
DWIDTH 25 0
BBX 49 54 4 -9
BITMAP
0000FFE0000000
0007FFFC000000
001FFFFF000000
007FFFFFC00000
00FF803FE00000
01FC000FF80000
03F00003FC0000
07E00000FC0000
0FC000007E0000
1F8000003F0000
1F0000001F0000
3F0000001F8000
3E0000000F8000
7E0000000FC000
7C00000007C000
7C00000007E000
FC00000007E000
F800000003E000
F800000003E000
F800000003E000
F800000003E000
F800000003E000
F800000003F000
F800000003E000
F800000003E000
F800000003E000
F800000003E000
F800000003E000
F800000003E000
FC00000007E000
7C00000007C000
7C00000007C000
7E0000000FC000
3E0000000F8000
3F0000001F8000
1F0000001F0000
0F8000003E0000
0FC000007E0000
07E00000FC0000
03F80003F80000
01FC0007E00000
00FF803FC00000
003FFFFF800000
000FFFFE000000
0000FFF0000000
00007FF0000000
0001FFFE000000
0007FFFFC00000
001E003FF80000
0010000FFF0180
00000001FFFF80
000000007FFF00
000000001FFC00
0000000003F000
ENDCHAR
STARTCHAR $0052
ENCODING 82
SWIDTH 322 0
DWIDTH 21 0
BBX 42 45 3 0
BITMAP
FFFFF8000000
1FFFFF800000
0FFFFFE00000
07E007F00000
07E001F80000
03E000FC0000
03E0007E0000
03E0003E0000
03E0003E0000
03E0001F0000
03E0001F0000
03E0001F0000
03E0001F0000
03E0001F0000
03E0001E0000
03E0001E0000
03E0003E0000
03E0003C0000
03E0007C0000
03E000F80000
03E001F00000
03E007E00000
03FFFF800000
03FFFE000000
03FFF8000000
03E0F8000000
03E07C000000
03E07E000000
03E03F000000
03E01F000000
03E01F800000
03E00FC00000
03E007E00000
03E003E00000
03E003F00000
03E001F80000
03E000FC0000
03E000FE0000
03E0007F0000
03E0003F8000
07E0001FC000
07E0000FE000
0FF00007F800
FFFF0003FF80
FFFF0000FFC0
ENDCHAR
STARTCHAR $0053
ENCODING 83
SWIDTH 276 0
DWIDTH 18 0
BBX 30 45 4 0
BITMAP
003FF800
03FFFFC0
07FFFFE0
1F800FE0
3F0003E0
3E0001E0
7C0001C0
7C0000C0
780000C0
F8000000
F8000000
F8000000
FC000000
FC000000
7E000000
7F000000
7FC00000
3FF80000
1FFF0000
0FFFE000
07FFF800
01FFFE00
007FFF80
000FFFC0
0001FFE0
00003FF0
00000FF0
000007F8
000001F8
000001FC
000000FC
000000FC
0000007C
0000007C
6000007C
6000007C
E00000F8
F00000F8
F00001F0
F80001F0
FC0007E0
FF000FC0
7FFFFF00
0FFFFC00
00FFE000
ENDCHAR
STARTCHAR $0054
ENCODING 84
SWIDTH 292 0
DWIDTH 19 0
BBX 37 45 1 0
BITMAP
4000000018
7FFFFFFFF8
FFFFFFFFF8
FFFFFFFFF8
F000F80078
E000F80018
C000F80018
C000F80018
0000F80000
0000F80000
0000F80000
0000F80000
0000F80000
0000F80000
0000F80000
0000F80000
0000F80000
0000F80000
0000F80000
0000F80000
0000F80000
0000F80000
0000F80000
0000F80000
0000F80000
0000F80000
0000F80000
0000F80000
0000F80000
0000F80000
0000F80000
0000F80000
0000F80000
0000F80000
0000F80000
0000F80000
0000F80000
0000F80000
0000F80000
0000F80000
0000FC0000
0001FC0000
0003FE0000
003FFFF000
003FFFF000
ENDCHAR
STARTCHAR $0055
ENCODING 85
SWIDTH 360 0
DWIDTH 24 0
BBX 45 45 2 0
BITMAP
FFFF0007FFF8
FFFF0007FFF8
0FF000007F80
07E000003F00
07E000003E00
07E000001E00
03E000001E00
03E000001E00
03C000001E00
03C000001E00
03C000001E00
03C000001E00
03C000001E00
03C000001E00
03C000001E00
03C000001E00
03C000001E00
03C000001E00
03C000001E00
03C000001E00
03C000001E00
03C000001E00
03C000001E00
03C000001E00
03C000001E00
03C000001E00
03C000001E00
03C000001E00
03C000001E00
03C000001E00
03E000001E00
03E000001E00
03E000003E00
03E000003C00
03F000003C00
01F000007C00
01F800007800
01F80000F800
00FC0001F000
007F0007F000
007FE01FE000
001FFFFFC000
000FFFFF0000
0003FFFC0000
00007FE00000
ENDCHAR
STARTCHAR $0056
ENCODING 86
SWIDTH 336 0
DWIDTH 22 0
BBX 48 45 -1 0
BITMAP
FFFF8000FFFF
FFFF8000FFFE
0FF800000FF0
07F0000007C0
03F0000007C0
01F000000780
01F800000700
00F800000F00
00F800000F00
00F800000E00
007C00001E00
007C00001C00
003E00003C00
003E00003C00
003E00003800
001F00007800
001F00007000
001F00007000
000F8000F000
000F8000E000
000FC001E000
0007C001C000
0007C001C000
0007E003C000
0003E0038000
0003E0038000
0001F0070000
0001F0070000
0001F8070000
0000F80E0000
0000F80E0000
0000FC1C0000
00007C1C0000
00007C1C0000
00007E380000
00003E380000
00003E380000
00001F700000
00001F700000
00001FE00000
00000FE00000
00000FE00000
00000FC00000
000007C00000
000007000000
ENDCHAR
STARTCHAR $0057
ENCODING 87
SWIDTH 546 0
DWIDTH 36 0
BBX 76 45 -1 0
BITMAP
FFFF8003FFFC000FFFF0
FFFF8003FFFC0007FFF0
0FF800007FE00000FF00
07F000003F8000007E00
03F000001F8000007C00
01F000001F8000007800
01F800000F8000007800
00F800000F800000F000
00F800000F800000F000
00F800000FC00000E000
007C00001FC00001E000
007C00001FE00001E000
003E00001FE00001C000
003E00003FE00003C000
003E00003BF00003C000
001F000079F000038000
001F000071F000078000
001F000071F800070000
000F8000F0F8000F0000
000F8000E0F8000E0000
000FC000E07C000E0000
0007C001E07C001E0000
0007C001C07E001C0000
0007E003C03E001C0000
0003E003803E003C0000
0003E003803F00380000
0001F007801F00380000
0001F007001F00700000
0001F807001F80700000
0000F80E000F80F00000
0000F80E000F80E00000
0000FC1E0007C0E00000
00007C1C0007C1C00000
00007C1C0007E1C00000
00007E380003E1C00000
00003E380003E3800000
00003E380003F3800000
00001F700001F7000000
00001F700001F7000000
00001FE00000FF000000
00000FE00000FE000000
00000FE00000FE000000
00000FC000007C000000
000007C000007C000000
00000700000078000000
ENDCHAR
STARTCHAR $0058
ENCODING 88
SWIDTH 330 0
DWIDTH 22 0
BBX 45 45 0 -1
BITMAP
3FFFE03FFFE0
1FFFC03FFFC0
03FC0003FE00
01FC0001F800
00FC0001F000
007E0003E000
007E0003E000
003F0003C000
001F00078000
001F800F8000
000F800F0000
0007C01E0000
0007E01C0000
0003E03C0000
0001F0380000
0001F0700000
0000F8F00000
00007CE00000
00007DC00000
00003FC00000
00001F800000
00001F000000
00000F800000
00001FC00000
00003FC00000
00003FE00000
000079F00000
0000F0F00000
0001E0F80000
0001C07C0000
0003C03C0000
0007803E0000
000F001F0000
000F000F8000
001E000F8000
003C0007C000
003C0007E000
00780003E000
00F00003F000
01F00001F800
03F00001FC00
07F00003FE00
7FFE000FFFE0
FFFF801FFFF8
000000100008
ENDCHAR
STARTCHAR $0059
ENCODING 89
SWIDTH 306 0
DWIDTH 20 0
BBX 43 45 -1 0
BITMAP
800080200020
FFFF803FFFE0
0FFC0007FF00
07F00001FC00
03F80001F800
01F80001F000
00FC0001E000
00FC0003E000
007E0003C000
003E00078000
003F00078000
001F000F0000
001F800E0000
000F801E0000
0007C01C0000
0007C0380000
0003E0380000
0003E0700000
0001F0F00000
0000F8E00000
0000F9E00000
00007DC00000
00007F800000
00003F800000
00003F000000
00001F000000
00001F000000
00001F000000
00001F000000
00001F000000
00001F000000
00001F000000
00001F000000
00001F000000
00001F000000
00001F000000
00001F000000
00001F000000
00001F000000
00001F000000
00001F000000
00003F800000
00003F800000
0003FFF80000
0007FFFC0000
ENDCHAR
STARTCHAR $005A
ENCODING 90
SWIDTH 306 0
DWIDTH 20 0
BBX 36 45 2 0
BITMAP
1FFFFFFFF0
1FFFFFFFE0
1FFFFFFFE0
3FFFFFFFC0
3C00003F80
3800003F00
3000007F00
3000007E00
000000FC00
000001F800
000001F800
000003F000
000003E000
000007C000
00000FC000
00000F8000
00001F0000
00001F0000
00003E0000
00007C0000
00007C0000
0000F80000
0001F00000
0001F00000
0003E00000
0007C00000
0007C00000
000F800000
001F000000
001F000000
003E000000
007C000000
00FC000000
00F8000000
01F8000000
03F0000030
03E0000030
07E0000070
0FC0000070
1FC00000F0
3F800003F0
7FFFFFFFE0
7FFFFFFFE0
FFFFFFFFE0
FFFFFFFFE0
ENDCHAR
STARTCHAR $005B
ENCODING 91
SWIDTH 142 0
DWIDTH 9 0
BBX 13 57 5 -7
BITMAP
FFF8
FFF0
7E00
7C00
7C00
7C00
7C00
7C00
7800
7800
7800
7800
7800
7800
7800
7800
7800
7800
7800
7800
7800
7800
7800
7800
7800
7800
7800
7800
7800
7800
7800
7800
7800
7800
7800
7800
7800
7800
7800
7800
7800
7800
7800
7800
7800
7800
7800
7800
7800
7C00
7C00
7C00
7C00
7C00
7E00
FFF0
FFF8
ENDCHAR
STARTCHAR $005C
ENCODING 92
SWIDTH 216 0
DWIDTH 14 0
BBX 23 51 3 -4
BITMAP
F80000
F80000
FC0000
7C0000
7C0000
3C0000
3E0000
1E0000
1E0000
1F0000
0F0000
0F0000
078000
078000
078000
03C000
03C000
03E000
01E000
01E000
00F000
00F000
00F000
007800
007800
007800
003C00
003C00
001C00
001E00
001E00
000F00
000F00
000F00
000780
000780
000780
0003C0
0003C0
0003E0
0001E0
0001E0
0001F0
0000F0
0000F8
0000F8
000078
00007C
00007C
00003E
00003E
ENDCHAR
STARTCHAR $005D
ENCODING 93
SWIDTH 142 0
DWIDTH 9 0
BBX 12 57 1 -7
BITMAP
FFF0
FFF0
07F0
03F0
01F0
01F0
01F0
01F0
01F0
01F0
01F0
01F0
01E0
01E0
01E0
01E0
01E0
01E0
01E0
01E0
01E0
01E0
01E0
01E0
01E0
01E0
01E0
01E0
01E0
01E0
01E0
01E0
01E0
01E0
01E0
01E0
01E0
01E0
01E0
01E0
01E0
01F0
01F0
01F0
01F0
01F0
01F0
01F0
01F0
01F0
01F0
01F0
01F0
03F0
07F0
FFF0
FFF0
ENDCHAR
STARTCHAR $005E
ENCODING 94
SWIDTH 172 0
DWIDTH 11 0
BBX 16 9 4 36
BITMAP
0100
03C0
07E0
0FF0
3FF8
7C7C
F01E
E007
8002
ENDCHAR
STARTCHAR $005F
ENCODING 95
SWIDTH 232 0
DWIDTH 15 0
BBX 29 4 1 -4
BITMAP
FFFFFFF8
FFFFFFF8
FFFFFFF8
FFFFFFF8
ENDCHAR
STARTCHAR $0060
ENCODING 96
SWIDTH 112 0
DWIDTH 7 0
BBX 15 9 0 37
BITMAP
6000
F800
FE00
FF80
1FC0
07F0
00FC
003E
0004
ENDCHAR
STARTCHAR $0061
ENCODING 97
SWIDTH 246 0
DWIDTH 16 0
BBX 30 32 2 0
BITMAP
007FC000
07FFF800
1FFFFC00
1F007E00
1E001F00
0C000F80
0C000F80
08000F80
00000F80
00000780
00000780
00000780
0000FF80
007FFF80
03FFFF80
07FC0780
1FC00780
3F000780
3E000780
7C000780
7C000F80
78000F80
F8000F80
F8000F80
78001F80
7C007F80
7E00EF80
7F03EF80
3FFF8FC0
1FFF0FC0
0FFE0FFC
03F00FFC
ENDCHAR
STARTCHAR $0062
ENCODING 98
SWIDTH 300 0
DWIDTH 20 0
BBX 36 51 1 0
BITMAP
0020000000
7FE0000000
1FC0000000
07C0000000
07C0000000
07C0000000
03C0000000
03C0000000
03C0000000
03C0000000
03C0000000
03C0000000
03C0000000
03C0000000
03C0000000
03C0000000
03C0000000
03C0000000
03C0000000
03C03F8000
03C1FFF000
03C3FFFC00
03C7FFFE00
03CFC0FF00
03DE003F80
03FC001FC0
03F8000FC0
03F00007E0
03E00003E0
03E00003E0
03C00003F0
03C00001F0
03C00001F0
03C00001F0
03C00001F0
03C00001F0
03C00001F0
03C00001F0
03C00003F0
03C00003E0
03E00003E0
03E00007E0
03F00007C0
03F8000FC0
03FC001F80
07DE003F80
07CF80FF00
07CFFFFE00
07E3FFF800
0FE1FFF000
FFE03F8000
ENDCHAR
STARTCHAR $0063
ENCODING 99
SWIDTH 254 0
DWIDTH 17 0
BBX 29 32 3 0
BITMAP
0007FC00
003FFFC0
00FFFFF0
03F003F0
07C000E0
0F800060
1F000060
3E000060
3E000000
7C000000
7C000000
7C000000
F8000000
F8000000
F8000000
F8000000
F8000000
F8000000
F8000000
FC000000
7C000000
7C000000
7E000000
3E000000
3F000000
1F800000
0FC00000
07E00038
03FC03F0
01FFFFE0
007FFF00
000FF800
ENDCHAR
STARTCHAR $0064
ENCODING 100
SWIDTH 300 0
DWIDTH 20 0
BBX 36 51 3 0
BITMAP
0000000200
000007FE00
000001FE00
0000007E00
0000007E00
0000003E00
0000003C00
0000003C00
0000003C00
0000003C00
0000003C00
0000003C00
0000003C00
0000003C00
0000003C00
0000003C00
0000003C00
0000003C00
0000003C00
001FC03C00
00FFF83C00
01FFFC3C00
07FFFE3C00
0FF01F3C00
1FC007BC00
1F8003FC00
3F0001FC00
3E0000FC00
7E00007C00
7C00007C00
7C00003C00
FC00003C00
F800003C00
F800003C00
F800003C00
F800003C00
F800003C00
F800003C00
FC00003C00
7C00003C00
7C00007C00
7E00007C00
7E0000FE00
3F0001FE00
3F8003FE00
1FC007BE00
0FF01F3E00
07FFFE3E00
03FFFC7F00
00FFF87FE0
001FC07FF0
ENDCHAR
STARTCHAR $0065
ENCODING 101
SWIDTH 262 0
DWIDTH 17 0
BBX 30 32 3 0
BITMAP
000FF000
007FFE00
01FFFF00
03E00FC0
07C007C0
0F8003E0
1F0001F0
3E0001F0
3C0000F8
7C0000F8
7C0000F8
7FFFFFFC
FFFFFFF8
FFFFFFF0
F8000000
F8000000
F8000000
F8000000
F8000000
FC000000
7C000000
7C000000
7E000000
3F000000
3F800000
1FC00000
0FE00030
0FFC01F0
03FFFFE0
01FFFFC0
007FFF00
001FF000
ENDCHAR
STARTCHAR $0066
ENCODING 102
SWIDTH 164 0
DWIDTH 11 0
BBX 23 50 2 0
BITMAP
0007F0
001FFC
003FFE
00783E
00E01E
01E00E
01C006
01C006
03C000
03C000
03C000
03C000
03C000
03C000
07C000
07C000
07C000
07C000
07C000
07FFE0
FFFFE0
FFFFE0
07C000
07C000
07C000
07C000
07C000
07C000
07C000
07C000
07C000
07C000
07C000
07C000
07C000
07C000
07C000
07C000
07C000
07C000
07C000
07C000
07C000
07C000
07C000
07C000
07C000
07E000
0FF000
FFFF00
ENDCHAR
STARTCHAR $0067
ENCODING 103
SWIDTH 254 0
DWIDTH 17 0
BBX 31 48 2 -16
BITMAP
003FC00E
01FFFFFC
03FFFFFC
07C07FFC
0F801F00
1F000F80
3E000FC0
3E0007C0
3C0007C0
7C0003E0
7C0003E0
7C0003E0
7C0003E0
7C0003E0
3E0003E0
3E0007C0
3E0007C0
1F000F80
1F801F80
0FC03F00
07FFFE00
03FFF800
00FFC000
03C00000
07800000
0F800000
0FC00000
0FF80000
0FFFF800
07FFFF80
03FFFFC0
03FFFFF0
0F807FF0
1E0007F8
3C0001F8
780000FC
7800007C
F000007C
F000007C
F800007C
F80000F8
7C0000F8
7E0003F0
3FC01FF0
1FFFFFE0
0FFFFF80
03FFFE00
007FF000
ENDCHAR
STARTCHAR $0068
ENCODING 104
SWIDTH 300 0
DWIDTH 20 0
BBX 38 50 1 0
BITMAP
0020000000
FFE0000000
1FC0000000
07C0000000
07C0000000
07C0000000
07C0000000
07C0000000
07C0000000
03C0000000
03C0000000
03C0000000
03C0000000
03C0000000
03C0000000
03C0000000
03C0000000
03C0000000
03C03F8000
03C1FFF000
03C3FFF800
03C7FFFC00
03CF81FE00
03DE007E00
03DC003F00
03F8001F00
03F0001F80
03E0000F80
03E0000F80
03C0000F80
03C0000F80
03C0000F80
03C0000F80
03C0000F80
03C0000F80
03C0000F80
03C0000F80
03C0000F80
03C0000F80
03C0000F80
03C0000F80
03C0000F80
07C0000F80
07C0000F80
07C0000F80
07C0000F80
07C0000F80
07E0000F80
0FF0000FE0
FFFE001FFC
ENDCHAR
STARTCHAR $0069
ENCODING 105
SWIDTH 134 0
DWIDTH 9 0
BBX 15 46 2 0
BITMAP
0780
0FC0
0FC0
0FC0
0FC0
0780
0000
0000
0000
0000
0000
0000
0000
0000
0040
FFC0
1FC0
0FC0
07C0
07C0
07C0
07C0
07C0
07C0
07C0
07C0
07C0
07C0
07C0
07C0
07C0
07C0
07C0
07C0
07C0
07C0
07C0
07C0
07C0
07C0
07C0
07C0
07C0
07E0
0FF0
FFFE
ENDCHAR
STARTCHAR $006A
ENCODING 106
SWIDTH 126 0
DWIDTH 8 0
BBX 13 63 -1 -18
BITMAP
01E0
03F0
03F0
03F0
03F0
01E0
0000
0000
0000
0000
0000
0000
0000
0000
0008
1FF0
07F0
01F0
01F0
01F0
01F0
01F0
00F0
00F0
00F0
00F0
00F0
00F0
00F0
00F0
00F0
00F0
00F0
00F0
00F0
00F0
00F0
00F0
00F0
00F0
00F0
00F0
00F0
00F0
00F0
01F0
01F0
01F0
01F0
01F0
01F0
01F0
01E0
01E0
01E0
01C0
01C0
0380
0380
0700
0E00
FC00
F000
ENDCHAR
STARTCHAR $006B
ENCODING 107
SWIDTH 262 0
DWIDTH 17 0
BBX 34 51 1 0
BITMAP
0020000000
FFE0000000
1FC0000000
07C0000000
07C0000000
07C0000000
07C0000000
07C0000000
07C0000000
03C0000000
03C0000000
03C0000000
03C0000000
03C0000000
03C0000000
03C0000000
03C0000000
03C0000000
03C0000000
03C0100200
03C01FFE00
03C007F800
03C003E000
03C003C000
03C0070000
03C00E0000
03C01C0000
03C0780000
03C0F00000
03C1E00000
03C3C00000
03C7800000
03CF800000
03DFC00000
03FFE00000
03FBE00000
03E3F00000
03E1F80000
03C0FC0000
03C07E0000
03C03E0000
03C03F0000
07C01F8000
07C00FC000
07C007C000
07C003E000
07C003F000
07C001F800
07E000FC00
1FF8007F80
FFFE001FC0
ENDCHAR
STARTCHAR $006C
ENCODING 108
SWIDTH 134 0
DWIDTH 9 0
BBX 14 50 2 0
BITMAP
0040
FFC0
3FC0
0FC0
0FC0
0780
0780
0780
0780
0780
0780
0780
0780
0780
0780
0780
0780
0780
0780
0780
0780
0780
0780
0780
0780
0780
0780
0780
0780
0780
0780
0780
0780
0780
0780
0780
0780
0780
0780
0780
0780
0780
0780
0780
07C0
07C0
0FC0
0FC0
1FE0
FFFC
ENDCHAR
STARTCHAR $006D
ENCODING 109
SWIDTH 464 0
DWIDTH 31 0
BBX 59 32 2 0
BITMAP
00007F0001FC0000
FFC1FFC007FF0000
1FC7FFF01FFFC000
0FCFFFF83FFFE000
07CF83FC7E0FF000
07DE00FC7803F000
07F8007EE001F800
07F0003FC000F800
07F0001F8000F800
07E0001F80007800
07C0001F00007C00
07C0001F00007C00
07C0001F00007C00
07C0001F00007C00
07C0001F00007C00
07C0001F00007C00
07C0001F00007C00
07C0001F00007C00
07C0001F00007C00
07C0001F00007C00
07C0001F00007C00
07C0001F00007C00
07C0001F00007C00
07C0001F00007C00
07C0001F00007C00
07C0001F00007C00
07C0001F00007C00
07C0001F00007C00
07C0001F00007C00
07E0001F80007C00
0FF0003FC0007F00
FFFE03FFF800FFE0
ENDCHAR
STARTCHAR $006E
ENCODING 110
SWIDTH 306 0
DWIDTH 20 0
BBX 38 32 2 0
BITMAP
00003F8000
FFC1FFE000
1FC3FFF800
0FC7FFFC00
07CF81FE00
07DE007E00
07FC003F00
07F0001F00
07F0001F00
07E0001F00
07C0000F80
07C0000F80
07C0000F80
07C0000F80
07C0000F80
07C0000F80
07C0000F80
07C0000F80
07C0000F80
07C0000F80
07C0000F80
07C0000F80
07C0000F80
07C0000F80
07C0000F80
07C0000F80
07C0000F80
07C0000F80
07C0000F80
07E0000F80
0FF0001FC0
FFFE001FFC
ENDCHAR
STARTCHAR $006F
ENCODING 111
SWIDTH 292 0
DWIDTH 19 0
BBX 33 32 3 0
BITMAP
000FF80000
007FFF0000
01FFFFC000
03F007E000
07C003F000
0F8001F800
1F0000FC00
3E00007E00
3E00003E00
7C00003F00
7C00001F00
7C00001F00
F800001F80
F800000F80
F800000F80
F800000F80
F800000F80
F800000F80
F800000F80
F800000F80
7C00001F80
7C00001F00
7E00001F00
3E00003F00
3F00003E00
1F00007C00
0F8000FC00
07E001F800
03F007E000
01FFFFC000
007FFF0000
000FF80000
ENDCHAR
STARTCHAR $0070
ENCODING 112
SWIDTH 300 0
DWIDTH 20 0
BBX 36 50 1 -18
BITMAP
00003F8000
0041FFF000
7FE3FFFC00
1FC7FFFE00
07CF80FF00
07DE003F80
07FC001FC0
07F8000FC0
03F00007E0
03E00003E0
03E00003E0
03C00003E0
03C00003F0
03C00001F0
03C00001F0
03C00001F0
03C00001F0
03C00001F0
03C00001F0
03C00003F0
03C00003E0
03E00003E0
03E00007E0
03F00007C0
03F8000FC0
03FC001F80
03DE003F80
03DF80FF00
03CFFFFE00
03C3FFF800
03C1FFF000
03C03F8000
03C0000000
03C0000000
03C0000000
03C0000000
03C0000000
03C0000000
03C0000000
03C0000000
03C0000000
03C0000000
03C0000000
07C0000000
07C0000000
07C0000000
07E0000000
07E0000000
0FF0000000
FFFE000000
ENDCHAR
STARTCHAR $0071
ENCODING 113
SWIDTH 300 0
DWIDTH 20 0
BBX 36 50 3 -18
BITMAP
001FC00000
00FFF82000
01FFFC7FE0
07FFFE3F80
0FF01F3E00
1FC007BE00
1F8003FE00
3F0001FE00
3E0000FE00
7E00007C00
7C00007C00
7C00003C00
FC00003C00
F800003C00
F800003C00
F800003C00
F800003C00
F800003C00
F800003C00
FC00003C00
7C00003C00
7C00007C00
7E00007C00
7E0000FC00
3F0001FC00
3F8003FC00
1FC007BC00
0FF01F3C00
07FFFE3C00
03FFFC3C00
00FFF83C00
001FC03C00
0000003C00
0000003C00
0000003C00
0000003C00
0000003C00
0000003C00
0000003C00
0000003C00
0000003C00
0000003E00
0000003E00
0000003E00
0000003E00
0000003E00
0000007E00
0000007E00
000000FF00
000007FFF0
ENDCHAR
STARTCHAR $0072
ENCODING 114
SWIDTH 202 0
DWIDTH 13 0
BBX 24 32 2 0
BITMAP
0000FC
FFC1FF
1FC3FF
0FC7FF
07CFFF
07DE0F
07DC06
07F800
07F000
07E000
07E000
07C000
07C000
07C000
07C000
07C000
07C000
07C000
07C000
07C000
07C000
07C000
07C000
07C000
07C000
07C000
07C000
07C000
07C000
07E000
0FF000
FFFF00
ENDCHAR
STARTCHAR $0073
ENCODING 115
SWIDTH 216 0
DWIDTH 14 0
BBX 24 32 3 0
BITMAP
01FF00
07FFE0
1FFFFC
3F00FC
3C003C
7C0018
780018
780018
F80000
7C0000
7C0000
7E0000
7F8000
3FF800
1FFF80
07FFF0
01FFF8
001FFC
0001FE
00007E
00003F
00001F
60001F
60001F
60001F
70001E
70003E
78007C
FC00F8
FFFFF0
3FFFC0
03FF00
ENDCHAR
STARTCHAR $0074
ENCODING 116
SWIDTH 164 0
DWIDTH 11 0
BBX 18 42 2 0
BITMAP
07C000
0FC000
078000
078000
078000
078000
078000
078000
078000
078000
07FFC0
FFFFC0
FFFFC0
078000
078000
078000
078000
078000
078000
078000
078000
078000
078000
078000
078000
078000
078000
078000
078000
0F8000
0F8000
0F8000
0F8000
0F8000
0F8000
0F8000
0F8000
078000
07C0C0
07FFC0
03FF80
00FC00
ENDCHAR
STARTCHAR $0075
ENCODING 117
SWIDTH 300 0
DWIDTH 20 0
BBX 38 32 1 0
BITMAP
0040000080
FFC001FF80
1FC0003F80
0FC0001F80
07C0001F80
07C0000F80
07C0000F80
07C0000F00
07C0000F00
07C0000F00
07C0000F00
07C0000F00
07C0000F00
07C0000F00
07C0000F00
07C0000F00
07C0000F00
07C0000F00
07C0000F00
07C0000F00
07C0000F00
07C0000F00
07C0001F00
03C0001F00
03E0003F00
03E0003F80
01F0006F80
01F801EF80
00FC03CF80
007FFF0F80
003FFE1FE0
0007F81FFC
ENDCHAR
STARTCHAR $0076
ENCODING 118
SWIDTH 262 0
DWIDTH 17 0
BBX 35 31 0 0
BITMAP
FFF803FFE0
3FE000FF80
1FC0007E00
0FC0003E00
07C0007C00
07C0007C00
07C0007800
03E0007800
03E0007000
01E000F000
01F000E000
01F000E000
00F001E000
00F801C000
007803C000
0078038000
007C038000
003C078000
003C070000
001E0F0000
001E0F0000
001F0E0000
000F1E0000
000F1C0000
000FBC0000
0007BC0000
0007F80000
0003F80000
0003F00000
0003F00000
0001F00000
ENDCHAR
STARTCHAR $0077
ENCODING 119
SWIDTH 412 0
DWIDTH 27 0
BBX 55 31 0 0
BITMAP
FFF807FF803FFE
3FE001FE0007F8
1FC000FC0003F0
0FC0007C0003E0
07C0007C0003C0
07C0007C0003C0
07C0007E000380
03E0007E000780
03E0007E000780
01E000FF000700
01F000EF000F00
01F000EF000E00
00F001CF800E00
00F801C7801E00
007803C7801C00
00780383C01C00
007C0383C03800
003C0783E03800
003C0701E07800
001E0F01E07000
001E0E01F0F000
001F0E00F0F000
000F1E00F0E000
000F1C0079E000
000FBC0079C000
0007BC007FC000
0007F8003FC000
0003F8003F8000
0003F0001F8000
0003F0001F0000
0001F0001F0000
ENDCHAR
STARTCHAR $0078
ENCODING 120
SWIDTH 262 0
DWIDTH 17 0
BBX 33 30 1 0
BITMAP
7FFC0FFF00
1FE001FC00
07E001F000
03E001E000
01F003C000
01F0038000
00F8078000
007C070000
003C0E0000
003E1E0000
001F3C0000
000FB80000
0007F00000
0007F00000
0003E00000
0007F00000
0007F00000
000EF80000
001E7C0000
003C3E0000
00381E0000
00701F0000
00F00F8000
01E007C000
01C007E000
038003E000
078001F000
0F8001F800
3FC003FE00
FFF00FFF80
ENDCHAR
STARTCHAR $0079
ENCODING 121
SWIDTH 254 0
DWIDTH 17 0
BBX 34 48 0 -18
BITMAP
FFF803FFC0
3FE000FF80
1FC0007F00
0FC0003E00
07C0007C00
07C0007C00
07C0007800
03E0007800
03E0007000
01E000F000
01F000F000
01F000E000
00F001E000
00F801C000
007803C000
007803C000
007C038000
003C078000
003C078000
001E0F0000
001E0F0000
001F0E0000
000F1E0000
000F1E0000
0007BC0000
0007BC0000
0007F80000
0003F80000
0003F80000
0003F00000
0001F00000
0001F00000
0001E00000
0001E00000
0003C00000
0003C00000
0003C00000
0007800000
0007800000
000F000000
000F000000
001E000000
003C000000
007C000000
00F8000000
03E0000000
3F80000000
1E00000000
ENDCHAR
STARTCHAR $007A
ENCODING 122
SWIDTH 246 0
DWIDTH 16 0
BBX 27 31 3 0
BITMAP
7FFFFFC0
7FFFFFC0
7FFFFF80
70007F00
6000FF00
E000FE00
C001FC00
4001F800
0003F800
0003F000
0007E000
0007E000
000FC000
001F8000
001F8000
003F0000
003E0000
007E0000
00FC0000
00F80000
01F80000
03F00000
07F00000
07E00060
0FC00060
1FC000E0
3F8000C0
3F8001C0
7FFFFFC0
FFFFFFC0
FFFFFFC0
ENDCHAR
STARTCHAR $007B
ENCODING 123
SWIDTH 126 0
DWIDTH 8 0
BBX 14 58 1 -7
BITMAP
003C
00F0
01E0
03C0
0380
0780
0780
0780
0780
0780
0780
0780
0780
0780
0780
0780
0780
0780
0780
0780
0780
0780
0780
0700
0700
0F00
0E00
1C00
E000
1800
0E00
0E00
0700
0700
0780
0780
0780
0780
0780
0780
0780
0780
0780
0780
0780
0780
0780
0780
0780
0780
0780
0780
0780
03C0
03C0
01E0
00F0
003C
ENDCHAR
STARTCHAR $007C
ENCODING 124
SWIDTH 120 0
DWIDTH 8 0
BBX 6 59 5 -8
BITMAP
FC
F8
F8
78
78
78
78
78
78
78
78
78
78
78
78
78
78
78
78
78
78
78
78
78
78
78
78
78
78
78
78
78
78
78
78
78
78
78
78
78
78
78
78
78
78
78
78
78
78
78
78
78
78
78
78
78
F8
F8
FC
ENDCHAR
STARTCHAR $007D
ENCODING 125
SWIDTH 126 0
DWIDTH 8 0
BBX 14 58 2 -7
BITMAP
F000
3C00
1E00
0F00
0F00
0780
0780
0780
0780
0780
0780
0780
0780
0780
0780
0780
0780
0780
0780
0780
0780
0780
0780
0380
0380
03C0
01C0
00E0
001C
0060
01C0
01C0
0380
0380
0780
0780
0780
0780
0780
0780
0780
0780
0780
0780
0780
0780
0780
0780
0780
0780
0780
0780
0700
0F00
0F00
1E00
3C00
F000
ENDCHAR
STARTCHAR $007E
ENCODING 126
SWIDTH 240 0
DWIDTH 16 0
BBX 24 6 4 14
BITMAP
000003
0FFFFE
1FFFFC
3FFFFC
7FFFF0
C00000
ENDCHAR
STARTCHAR $00A0
ENCODING 160
SWIDTH 120 0
DWIDTH 8 0
BBX 0 0 0 0
BITMAP
ENDCHAR
STARTCHAR $00A1
ENCODING 161
SWIDTH 112 0
DWIDTH 7 0
BBX 7 47 4 -15
BITMAP
38
7C
FE
FE
7C
38
00
00
00
00
20
38
38
38
38
38
38
38
38
38
38
38
38
38
38
38
78
78
7C
7C
7C
7C
7C
7C
7C
7C
7C
7C
7C
7C
7C
7C
7C
7C
FE
1E
02
ENDCHAR
STARTCHAR $00A2
ENCODING 162
SWIDTH 262 0
DWIDTH 17 0
BBX 28 48 3 -9
BITMAP
0007E000
0003E000
0003C000
0003C000
0003C000
0003C000
0003C000
0003C000
0003C000
0003F000
003FFF80
01FFFFE0
03FBC7F0
07C3C1E0
0F83C0E0
1F03C060
3E03C060
7C03C000
7C03C000
7C03C000
F803C000
F803C000
F803C000
F803C000
F803C000
F803C000
F803C000
F803C000
FC03C000
7C03C000
7E03C000
7E03C000
3F03C000
1F83C000
1FE3C030
0FFBC3F0
03FFFFE0
01FFFF80
007FFE00
0003E000
0003C000
0003C000
0003C000
0003C000
0003C000
0003C000
0003E000
0007E000
ENDCHAR
STARTCHAR $00A3
ENCODING 163
SWIDTH 270 0
DWIDTH 18 0
BBX 29 48 3 -3
BITMAP
0003F800
000FFF00
003FFF80
007FFFE0
007F03E0
00FC01F0
01F800F8
01F00078
01F00078
03F00078
03F00030
03E00030
03E00030
03E00000
03E00000
03E00000
03E00000
03E00000
03F00000
03F00000
03F00000
01F00000
01F00000
01F00000
7FFFFC00
7FFFFC00
FFFFF800
01F00000
01F00000
01F00000
01F00000
01F00000
01F00000
01F00000
03E00000
03E00000
07E00000
07C00000
0FC00030
1F800030
3F000070
7E000060
FFFC01E0
FFFFFFE0
FFFFFFE0
0000FFC0
000007C0
00000040
ENDCHAR
STARTCHAR $00A4
ENCODING 164
SWIDTH 292 0
DWIDTH 19 0
BBX 31 31 4 0
BITMAP
6000000C
F000001E
F80FE03C
7C7FFC78
3FFFFEF0
1FF03FE0
0FC00FC0
078003C0
0F0001E0
0E0000E0
1E0000F0
1C000070
3C000070
3C000078
3C000078
3C000078
3C000078
3C000078
3C000070
1C000070
1E0000F0
1E0000E0
0F0001E0
078003C0
07C007C0
0FF01FE0
1FFFFEF0
3C7FFC78
780FE03C
F000001E
6000000C
ENDCHAR
STARTCHAR $00A5
ENCODING 165
SWIDTH 352 0
DWIDTH 23 0
BBX 43 45 2 0
BITMAP
800080200020
FFFF803FFFE0
1FF80007FF00
07F00001FC00
03F00001F800
01F80001F000
00F80003E000
00FC0003C000
007C0007C000
007E00078000
003F000F0000
001F000F0000
001F801E0000
000F801C0000
0007C03C0000
0007C0380000
0003E0780000
0003E0700000
0001F0E00000
0000F0E00000
0000F9C00000
00FFFFFFE000
00FFFFFFE000
00FFFFFFE000
00003F000000
00001F000000
00001F000000
00001F000000
00FFFFFFE000
00FFFFFFE000
00FFFFFFE000
00001F000000
00001F000000
00001F000000
00001F000000
00001F000000
00001F000000
00001F000000
00001F000000
00001F000000
00003F000000
00003F800000
00007FC00000
0007FFF80000
0007FFFC0000
ENDCHAR
STARTCHAR $00A6
ENCODING 166
SWIDTH 120 0
DWIDTH 8 0
BBX 6 59 5 -8
BITMAP
FC
7C
78
78
78
78
78
78
78
78
78
78
78
78
78
78
78
78
78
78
78
78
78
78
7C
FC
00
00
00
00
00
00
00
FC
7C
78
78
78
78
78
78
78
78
78
78
78
78
78
78
78
78
78
78
78
78
78
78
7C
FC
ENDCHAR
STARTCHAR $00A7
ENCODING 167
SWIDTH 210 0
DWIDTH 14 0
BBX 22 52 3 -4
BITMAP
001F80
007FE0
01FFE0
03FFE0
0787C0
0603C0
0E0180
0E0080
1E0000
1E0000
1E0000
1F0000
1F8000
1FC000
0FE000
0FF000
0FF800
1FFE00
39FF00
30FF80
707FC0
703FE0
701FE0
F007F0
F803F8
FC01F8
FE00FC
7F007C
7F803C
7FC03C
3FE03C
1FF03C
0FF838
07FC38
03FF70
01FFE0
007FC0
003FC0
001FC0
0007C0
0003E0
0003C0
0001C0
0001C0
0201C0
0601C0
0E0180
0F8780
1FFF00
1FFE00
0FFC00
03F000
ENDCHAR
STARTCHAR $00A8
ENCODING 168
SWIDTH 112 0
DWIDTH 7 0
BBX 15 6 0 40
BITMAP
7038
F83C
FC7E
FC7E
F87C
703C
ENDCHAR
STARTCHAR $00A9
ENCODING 169
SWIDTH 366 0
DWIDTH 24 0
BBX 41 41 4 4
BITMAP
0000FF800000
0007FFF00000
001F00FC0000
0078001F0000
00E000078000
03C00001C000
07800000E000
060000007000
0E0000003800
1C007F801800
1803FFF01C00
3807FFF00E00
300F00F00600
701E00600600
603C00000700
603C00000300
E07800000300
E07800000300
C07800000380
C07800000380
C07800000380
C07800000380
C07800000380
E07800000300
E07800000300
603C00000300
603E00000700
701F00100600
300F80700600
3807FFF00E00
1803FFE01C00
1C007F001800
0E0000003800
060000007000
07000000E000
03C00001C000
01E000078000
0078001F0000
003F00FC0000
000FFFF00000
0000FF800000
ENDCHAR
STARTCHAR $00AA
ENCODING 170
SWIDTH 180 0
DWIDTH 12 0
BBX 17 20 3 25
BITMAP
03F000
1FF800
3FFC00
383C00
301C00
301E00
001E00
000E00
01FE00
0FFE00
3E0E00
780E00
701E00
F01E00
F01E00
F03C00
707C00
7FDE00
3F9F80
1F1F80
ENDCHAR
STARTCHAR $00AB
ENCODING 171
SWIDTH 232 0
DWIDTH 15 0
BBX 25 24 3 4
BITMAP
007C0F80
00F81F00
01F03E00
01E03C00
03C07800
0780F000
0701E000
0F01E000
1E03C000
3C078000
780F0000
781F0000
F81E0000
780F0000
3C078000
1E03C000
0F01C000
0701E000
0780F000
03C07800
01E03C00
01F03E00
00F81F00
007C0F80
ENDCHAR
STARTCHAR $00AC
ENCODING 172
SWIDTH 314 0
DWIDTH 21 0
BBX 32 16 5 7
BITMAP
FFFFFFFF
FFFFFFFF
FFFFFFFF
FFFFFFFF
00000007
00000007
00000007
00000007
00000007
00000007
00000007
00000007
00000007
00000007
00000007
00000007
ENDCHAR
STARTCHAR $00AD
ENCODING 173
SWIDTH 240 0
DWIDTH 16 0
BBX 23 4 4 14
BITMAP
7FFFFE
7FFFFE
7FFFFE
FFFFFE
ENDCHAR
STARTCHAR $00AE
ENCODING 174
SWIDTH 366 0
DWIDTH 24 0
BBX 41 41 4 4
BITMAP
0000FF800000
0007FFF00000
001F00FC0000
0078001F0000
00E000078000
03C00001C000
07800000E000
060000007000
0E1FF0003800
1C1FFF801800
180FFFC01C00
380783E00E00
300380E00600
700380E00600
600380E00700
600380E00300
E00380E00300
E00380E00300
C00383C00380
C003FF800380
C003FE000380
C003FC000380
C0039E000380
E0038F000300
E00387800300
600383800300
600383C00700
700381E00600
300380F00600
3807C07C0E00
181FF03E1C00
1C0000001800
0E0000003800
060000007000
07000000E000
03C00001C000
01E000078000
0078001F0000
003F00FC0000
000FFFF00000
0000FF800000
ENDCHAR
STARTCHAR $00B0
ENCODING 176
SWIDTH 172 0
DWIDTH 11 0
BBX 17 16 3 29
BITMAP
07F000
1FF800
3FFE00
781E00
700F00
600700
E00700
E00380
E00380
E00700
700700
700700
780E00
3FFE00
1FFC00
07F000
ENDCHAR
STARTCHAR $00B1
ENCODING 177
SWIDTH 240 0
DWIDTH 16 0
BBX 22 26 5 5
BITMAP
007800
007800
007800
007800
007800
007800
007800
7FFFFC
7FFFFC
7FFFF8
FFFFF8
007800
007800
007800
007800
007800
007800
007800
000000
000000
000000
000000
7FFFFC
7FFFFC
7FFFF8
FFFFF8
ENDCHAR
STARTCHAR $00B2
ENCODING 178
SWIDTH 180 0
DWIDTH 12 0
BBX 16 25 4 20
BITMAP
07E0
1FF8
3FFC
701E
700E
600E
600E
600E
000E
001C
001C
0038
0078
00F0
00E0
01C0
0380
0780
0F00
1E03
3C02
3806
7FFE
FFFE
FFFE
ENDCHAR
STARTCHAR $00B3
ENCODING 179
SWIDTH 172 0
DWIDTH 11 0
BBX 15 26 4 19
BITMAP
0FC0
3FF0
7FF8
7038
E01C
C01C
401C
001C
001C
0038
0070
01E0
0078
001C
000E
000E
000E
000E
800E
C00E
C00E
E01C
7078
7FF0
1FE0
0300
ENDCHAR
STARTCHAR $00B4
ENCODING 180
SWIDTH 112 0
DWIDTH 7 0
BBX 15 9 0 37
BITMAP
001C
003E
00FE
03FC
0FF0
3F80
7E00
F000
C000
ENDCHAR
STARTCHAR $00B5
ENCODING 181
SWIDTH 322 0
DWIDTH 21 0
BBX 38 40 3 -8
BITMAP
0040000080
FFC001FF80
1FC0003F80
0FC0001F80
07C0001F00
07C0000F00
07C0000F00
07C0000F00
07C0000F00
07C0000F00
07C0000F00
07C0000F00
07C0000F00
07C0000F00
07C0000F00
07C0000F00
07C0000F00
07C0000F00
07C0000F00
07C0000F00
07C0000F00
07C0000F00
07C0001F00
07C0001F00
07E0003F00
07E0003F00
07F0006F80
07F801EF80
0FFC03DF80
0F7FFF1F80
0F3FFE1FE0
0F0FF81FFC
1F00000000
1F00000000
1F00000000
3E00000000
3E00000000
3E00000000
7E00000000
1E00000000
ENDCHAR
STARTCHAR $00B6
ENCODING 182
SWIDTH 270 0
DWIDTH 18 0
BBX 31 53 2 -8
BITMAP
003FFFFE
03FFFFFC
07FFFFC0
0FFF81C0
1FFF8180
3FFFC180
3FFFC380
7FFFC380
7FFFC380
7FFFC380
FFFFC380
FFFFC380
FFFFC380
7FFFC380
7FFFC380
7FFFC380
7FFFC380
7FFFC380
3FFFC380
3FFFC380
1FFFC380
0FFFC380
07FFC380
01FFC380
007FC380
0001C380
0001C380
0001C380
0001C380
0001C380
0001C380
0001C380
0001C380
0001C380
0001C380
0001C380
0001C380
0001C380
0001C380
0001C380
0001C380
0001C380
0001C380
0001C380
0001C380
0001C380
0001C380
0001C180
0001C180
00018180
0003FFC0
001FFFF0
007FFFFE
ENDCHAR
STARTCHAR $00B7
ENCODING 183
SWIDTH 112 0
DWIDTH 7 0
BBX 7 6 4 13
BITMAP
38
7C
7E
FE
7C
38
ENDCHAR
STARTCHAR $00B8
ENCODING 184
SWIDTH 104 0
DWIDTH 7 0
BBX 14 13 0 -14
BITMAP
0700
0600
0C00
1FE0
3FF0
00F8
0078
003C
0078
0078
FFF0
FFE0
1F80
ENDCHAR
STARTCHAR $00B9
ENCODING 185
SWIDTH 134 0
DWIDTH 9 0
BBX 11 25 4 20
BITMAP
0200
0E00
1E00
7E00
EE00
0E00
0E00
0E00
0E00
0E00
0E00
0E00
0E00
0E00
0E00
0E00
0E00
0E00
0E00
0E00
0E00
0E00
0E00
1F00
FFE0
ENDCHAR
STARTCHAR $00BA
ENCODING 186
SWIDTH 186 0
DWIDTH 12 0
BBX 19 20 3 25
BITMAP
03F800
0FFE00
1FFF00
3C0F80
380380
7003C0
7001C0
E001E0
E000E0
E000E0
E000E0
E000E0
E001E0
7001C0
7001C0
3803C0
3C0780
1FFF00
0FFE00
03F800
ENDCHAR
STARTCHAR $00BB
ENCODING 187
SWIDTH 232 0
DWIDTH 15 0
BBX 24 24 4 4
BITMAP
F03E00
F81F00
7C0F80
3C0780
1E03C0
0F01E0
0780F0
0780F0
03C078
01E03C
00F01E
00F81E
00781F
00F01E
01E03C
03C078
0380F0
0780F0
0F01E0
1E03C0
3C0780
7C0F80
F81F00
F03E00
ENDCHAR
STARTCHAR $00BC
ENCODING 188
SWIDTH 344 0
DWIDTH 23 0
BBX 38 46 4 0
BITMAP
00000001F8
03000001F0
07000003E0
1F000003C0
3F00000780
E700000F00
0700000F00
0700001E00
0700003C00
0700003800
0700007800
070000F000
070001E000
070001C000
070003C000
0700078000
0700070000
07000F0000
07001E0000
07003C0000
0700380000
0700780000
0700F001E0
0F01E003E0
0F81C007E0
7FE3C006E0
0007800EE0
0007001CE0
000F001CE0
001E0038E0
003C0030E0
00380070E0
007800E0E0
00F000E0E0
01E001C0E0
01E00180E0
03C003FFFC
078003FFFC
0F800000E0
0F000000E0
1E000000E0
3E000000E0
7C000000E0
FC000001E0
00000001F0
0000000FFC
ENDCHAR
STARTCHAR $00BD
ENCODING 189
SWIDTH 352 0
DWIDTH 23 0
BBX 39 46 4 0
BITMAP
00000000F8
03000001F0
07000001E0
0F000003E0
3F000007C0
F700000780
0700000F00
0700001E00
0700001E00
0700003C00
0700007800
0700007000
070000F000
070001E000
070001C000
0700038000
0700078000
07000F0000
07000E0000
07001E0000
07003C0000
0700780000
0700700FE0
0F00F01FF8
0F81E07FFC
7FE3C0701C
0003C0E01E
000780600E
000F00400E
000E00000E
001E00001E
003C00001C
007800003C
0078000078
00F0000070
01E00000F0
03E00001E0
03C00003C0
0780000780
0F80000F00
1F00000E02
3E00001C02
3E00003806
7C00007FFE
F80000FFFE
000000FFFE
ENDCHAR
STARTCHAR $00BE
ENCODING 190
SWIDTH 360 0
DWIDTH 24 0
BBX 41 46 4 0
BITMAP
000000003F00
0FC000007C00
3FF000007C00
7FF80000F800
70380000F000
E01C0001E000
C01C0003C000
C01C0003C000
001C00078000
0018000F0000
0038000E0000
0070001E0000
01E0003C0000
027800780000
001C00700000
000E00F00000
000E01E00000
000E01C00000
800E03C00000
C00E07800000
C00E0F000000
E01C0E001C00
F0781E007C00
7FF83C00FC00
3FE07800FC00
03007801FC00
0000F001BC00
0001E003BC00
0001C0073C00
0003C0063800
0007800E3800
000F000C1800
000F001C1800
001E00381800
003C00381800
007800701800
007800FFFF80
00F0007FFF00
01E000001800
03E000003800
07C000003800
07C000003C00
0F8000003C00
1F0000003C00
000000007E00
00000001FF80
ENDCHAR
STARTCHAR $00BF
ENCODING 191
SWIDTH 210 0
DWIDTH 14 0
BBX 22 47 3 -15
BITMAP
003C00
007E00
007E00
007E00
007E00
003800
000000
000000
000000
000000
000000
001800
003800
003C00
003C00
003C00
003C00
003C00
007C00
007800
00F800
01F800
01F000
03F000
07E000
0FC000
0FC000
1F8000
3F0000
3E0000
7E0000
7C0000
7C0000
F80000
F80000
F80000
F80008
F80008
F80018
78001C
78003C
7C007C
3E00FC
1F83F8
0FFFF0
03FFC0
003800
ENDCHAR
STARTCHAR $00C0
ENCODING 192
SWIDTH 336 0
DWIDTH 22 0
BBX 47 58 -1 0
BITMAP
000020000000
0000F0000000
0000FC000000
0000FF000000
00007F800000
00000FE00000
000003F80000
0000007E0000
0000000C0000
000000000000
000000000000
000000000000
000000000000
000000C00000
000003C00000
000007E00000
000007E00000
00000FF00000
00000FF00000
00001FF00000
00001DF80000
00001CF80000
000038F80000
000038FC0000
0000787C0000
0000707C0000
0000703E0000
0000F03E0000
0000E03F0000
0001E01F0000
0001C01F0000
0001C01F8000
0003C00F8000
0003800F8000
00078007C000
00070007C000
0007FFFFC000
000FFFFFE000
000FFFFFE000
000E0003F000
001E0001F000
001C0001F000
003C0001F800
003C0000F800
00380000F800
007800007C00
007000007C00
00F000007C00
00F000003E00
00E000003E00
01E000003F00
01E000001F00
03C000001F00
03C000001F80
07C000001FC0
0FE000003FE0
FFFE0001FFFE
FFFE0003FFFE
ENDCHAR
STARTCHAR $00C1
ENCODING 193
SWIDTH 336 0
DWIDTH 22 0
BBX 47 58 -1 0
BITMAP
000000080000
0000003C0000
0000007E0000
000001FE0000
000007F80000
00001FE00000
00003F000000
0000FC000000
0000E0000000
000000000000
000000000000
000000000000
000000000000
000000C00000
000003C00000
000007E00000
000007E00000
00000FF00000
00000FF00000
00001FF00000
00001DF80000
00001CF80000
000038F80000
000038FC0000
0000787C0000
0000707C0000
0000703E0000
0000F03E0000
0000E03F0000
0001E01F0000
0001C01F0000
0001C01F8000
0003C00F8000
0003800F8000
00078007C000
00070007C000
0007FFFFC000
000FFFFFE000
000FFFFFE000
000E0003F000
001E0001F000
001C0001F000
003C0001F800
003C0000F800
00380000F800
007800007C00
007000007C00
00F000007C00
00F000003E00
00E000003E00
01E000003F00
01E000001F00
03C000001F00
03C000001F80
07C000001FC0
0FE000003FE0
FFFE0001FFFE
FFFE0003FFFE
ENDCHAR
STARTCHAR $00C2
ENCODING 194
SWIDTH 336 0
DWIDTH 22 0
BBX 47 57 -1 0
BITMAP
000001000000
000003800000
00000FE00000
00001FF00000
00003FF80000
00007C7C0000
0000F01E0000
0000E00E0000
000080020000
000000000000
000000000000
000000000000
000000C00000
000003C00000
000007E00000
000007E00000
00000FF00000
00000FF00000
00001FF00000
00001DF80000
00001CF80000
000038F80000
000038FC0000
0000787C0000
0000707C0000
0000703E0000
0000F03E0000
0000E03F0000
0001E01F0000
0001C01F0000
0001C01F8000
0003C00F8000
0003800F8000
00078007C000
00070007C000
0007FFFFC000
000FFFFFE000
000FFFFFE000
000E0003F000
001E0001F000
001C0001F000
003C0001F800
003C0000F800
00380000F800
007800007C00
007000007C00
00F000007C00
00F000003E00
00E000003E00
01E000003F00
01E000001F00
03C000001F00
03C000001F80
07C000001FC0
0FE000003FE0
FFFE0001FFFE
FFFE0003FFFE
ENDCHAR
STARTCHAR $00C3
ENCODING 195
SWIDTH 336 0
DWIDTH 22 0
BBX 47 57 -1 0
BITMAP
000000004000
00007F01C000
0001FFFF8000
0003FFFF8000
0003FFFF0000
000603FC0000
000400000000
000000000000
000000000000
000000000000
000000000000
000000000000
000000C00000
000003C00000
000007E00000
000007E00000
00000FF00000
00000FF00000
00001FF00000
00001DF80000
00001CF80000
000038F80000
000038FC0000
0000787C0000
0000707C0000
0000703E0000
0000F03E0000
0000E03F0000
0001E01F0000
0001C01F0000
0001C01F8000
0003C00F8000
0003800F8000
00078007C000
00070007C000
0007FFFFC000
000FFFFFE000
000FFFFFE000
000E0003F000
001E0001F000
001C0001F000
003C0001F800
003C0000F800
00380000F800
007800007C00
007000007C00
00F000007C00
00F000003E00
00E000003E00
01E000003F00
01E000001F00
03C000001F00
03C000001F80
07C000001FC0
0FE000003FE0
FFFE0001FFFE
FFFE0003FFFE
ENDCHAR
STARTCHAR $00C4
ENCODING 196
SWIDTH 336 0
DWIDTH 22 0
BBX 47 57 -1 0
BITMAP
0000701C0000
0000F03E0000
0001F83E0000
0001F83E0000
0000F83E0000
0000701C0000
000000000000
000000000000
000000000000
000000000000
000000000000
000000000000
000000C00000
000003C00000
000007E00000
000007E00000
00000FF00000
00000FF00000
00001FF00000
00001DF80000
00001CF80000
000038F80000
000038FC0000
0000787C0000
0000707C0000
0000703E0000
0000F03E0000
0000E03F0000
0001E01F0000
0001C01F0000
0001C01F8000
0003C00F8000
0003800F8000
00078007C000
00070007C000
0007FFFFC000
000FFFFFE000
000FFFFFE000
000E0003F000
001E0001F000
001C0001F000
003C0001F800
003C0000F800
00380000F800
007800007C00
007000007C00
00F000007C00
00F000003E00
00E000003E00
01E000003F00
01E000001F00
03C000001F00
03C000001F80
07C000001FC0
0FE000003FE0
FFFE0001FFFE
FFFE0003FFFE
ENDCHAR
STARTCHAR $00C5
ENCODING 197
SWIDTH 336 0
DWIDTH 22 0
BBX 47 53 -1 0
BITMAP
000007800000
00000FE00000
00001C700000
000038300000
000030380000
000030380000
000038380000
000038300000
00001EF00000
00000FE00000
000007E00000
000007E00000
00000FE00000
00000FF00000
00001FF00000
00001DF80000
00001CF80000
000038F80000
000038FC0000
0000787C0000
0000707C0000
0000703E0000
0000F03E0000
0000E03E0000
0001E01F0000
0001C01F0000
0001C01F8000
0003C00F8000
0003800F8000
00038007C000
00070007C000
0007FFFFC000
000FFFFFE000
000FFFFFE000
000E0003E000
001E0001F000
001C0001F000
003C0001F800
003C0000F800
00380000F800
007800007C00
007000007C00
00F000007C00
00F000003E00
00E000003E00
01E000003F00
01E000001F00
03C000001F00
03C000001F80
07C000001FC0
0FE000003FE0
FFFE0001FFFE
FFFE0003FFFE
ENDCHAR
STARTCHAR $00C6
ENCODING 198
SWIDTH 434 0
DWIDTH 29 0
BBX 57 44 -2 0
BITMAP
0000007FFFFFFF00
0000003FFFFFFF00
0000000FFFFFFF00
00000007FC000F00
000000077C000700
0000000F7C000600
0000000E78000600
0000001C78000000
0000003C78000000
0000003878000000
0000007878000000
0000007078000000
000000E078000000
000001E078000000
000001C078004000
000003C078004000
000003807800C000
000007007800C000
00000F007801C000
00000FFFFFFFC000
00001FFFFFFFC000
00001FFFFFFFC000
000038007801C000
000078007800C000
000070007800C000
0000F00078004000
0000E00078004000
0001C00078000000
0003C00078000000
0003800078000000
0007800078000000
0007000078000000
000F000078000000
001E000078000000
001C000078000000
003C000078000180
00780000F8000180
00780000F8000180
00F00000FC000380
01F00000FC000380
01F00000FC001F80
07F80001FFFFFF00
FFFF001FFFFFFF00
FFFF001FFFFFFF00
ENDCHAR
STARTCHAR $00C7
ENCODING 199
SWIDTH 330 0
DWIDTH 22 0
BBX 37 58 4 -13
BITMAP
00007FFC00
0007FFFFE0
001FFFFFF0
007F801FF0
00FC0003F0
01F00001F0
03E00000E0
07C0000060
0F80000060
1F00000000
1F00000000
3E00000000
3E00000000
7C00000000
7C00000000
7C00000000
FC00000000
F800000000
F800000000
F800000000
F800000000
F800000000
F800000000
F800000000
F800000000
F800000000
F800000000
F800000000
FC00000000
FC00000000
7C00000000
7E00000000
3E00000000
3F00000000
3F00000000
1F80000000
0FC0000000
0FE0000000
07F0000008
03F8000038
00FE0000F0
007FE00FF0
001FFFFFC0
0007FFFE00
0000FFF000
00001C0000
00001C0000
00003A0000
00007FC000
00007FE000
000001F000
000000F000
000000F000
000000F000
000001E000
0001FFE000
0003FFC000
00007F0000
ENDCHAR
STARTCHAR $00C8
ENCODING 200
SWIDTH 284 0
DWIDTH 19 0
BBX 32 58 3 0
BITMAP
00100000
00780000
007E0000
007F8000
001FE000
0007F000
0000FC00
00003E00
00000600
00000000
00000000
00000000
00000000
FFFFFFFE
FFFFFFFE
0FFFFFFE
07FFFFFE
07E0001E
03E0000E
03E0000E
03E0000E
03E00000
03E00000
03E00000
03E00000
03E00000
03E00000
03E00000
03E00000
03E000C0
03E00080
03E00180
03E00380
03FFFF80
03FFFF80
03FFFF80
03E00380
03E00180
03E00080
03E000C0
03E000C0
03E00000
03E00000
03E00000
03E00000
03E00000
03E00000
03E00000
03E00000
03E00003
03E00003
03E00003
03E00007
07E00007
07E0003F
0FFFFFFF
1FFFFFFE
FFFFFFFE
ENDCHAR
STARTCHAR $00C9
ENCODING 201
SWIDTH 284 0
DWIDTH 19 0
BBX 32 58 3 0
BITMAP
00000400
00001E00
00007E00
0000FE00
0003FC00
000FE000
003F0000
007C0000
00600000
00000000
00000000
00000000
00000000
FFFFFFFE
FFFFFFFE
0FFFFFFE
07FFFFFE
07E0001E
03E0000E
03E0000E
03E0000E
03E00000
03E00000
03E00000
03E00000
03E00000
03E00000
03E00000
03E00000
03E000C0
03E00080
03E00180
03E00380
03FFFF80
03FFFF80
03FFFF80
03E00180
03E00180
03E00080
03E000C0
03E00000
03E00000
03E00000
03E00000
03E00000
03E00000
03E00000
03E00000
03E00000
03E00003
03E00003
03E00003
03E00007
07E00007
07E0003F
0FFFFFFF
1FFFFFFE
FFFFFFFE
ENDCHAR
STARTCHAR $00CA
ENCODING 202
SWIDTH 284 0
DWIDTH 19 0
BBX 32 57 3 0
BITMAP
0000C000
0001E000
0003F000
000FF800
001FFC00
003E1E00
00780F80
00600300
00000000
00000000
00000000
00000000
FFFFFFFE
FFFFFFFE
0FFFFFFE
07FFFFFE
07E0001E
03E0000E
03E0000E
03E0000E
03E00000
03E00000
03E00000
03E00000
03E00000
03E00000
03E00000
03E00000
03E000C0
03E00080
03E00180
03E00380
03FFFF80
03FFFF80
03FFFF80
03E00180
03E00180
03E00080
03E000C0
03E00000
03E00000
03E00000
03E00000
03E00000
03E00000
03E00000
03E00000
03E00000
03E00003
03E00003
03E00003
03E00007
07E00007
07E0003F
0FFFFFFF
1FFFFFFE
FFFFFFFE
ENDCHAR
STARTCHAR $00CB
ENCODING 203
SWIDTH 284 0
DWIDTH 19 0
BBX 32 57 3 0
BITMAP
00700E00
00F81F00
00FC1F00
00FC1F00
00F81F00
00700E00
00000000
00000000
00000000
00000000
00000000
00000000
FFFFFFFE
FFFFFFFE
0FFFFFFE
07FFFFFE
07E0001E
03E0000E
03E0000E
03E0000E
03E00000
03E00000
03E00000
03E00000
03E00000
03E00000
03E00000
03E00000
03E000C0
03E00080
03E00180
03E00380
03FFFF80
03FFFF80
03FFFF80
03E00180
03E00180
03E00080
03E000C0
03E00000
03E00000
03E00000
03E00000
03E00000
03E00000
03E00000
03E00000
03E00000
03E00003
03E00003
03E00003
03E00007
07E00007
07E0003F
0FFFFFFF
1FFFFFFE
FFFFFFFE
ENDCHAR
STARTCHAR $00CC
ENCODING 204
SWIDTH 164 0
DWIDTH 11 0
BBX 16 58 3 0
BITMAP
1000
7800
7E00
7F80
3FE0
07F0
00FC
003E
0006
0000
0000
0000
0000
FFFF
FFFF
0FF8
07F0
07E0
07E0
03E0
03E0
03E0
03E0
03E0
03E0
03E0
03E0
03E0
03E0
03E0
03E0
03E0
03E0
03E0
03E0
03E0
03E0
03E0
03E0
03E0
03E0
03E0
03E0
03E0
03E0
03E0
03E0
03E0
03E0
03E0
03E0
03E0
03E0
07E0
07E0
0FF0
FFFF
FFFF
ENDCHAR
STARTCHAR $00CD
ENCODING 205
SWIDTH 164 0
DWIDTH 11 0
BBX 16 58 3 0
BITMAP
0004
001E
007E
00FE
03FC
0FE0
3F80
7C00
6000
0000
0000
0000
0000
FFFF
FFFF
0FF8
07F0
07E0
07E0
03E0
03E0
03E0
03E0
03E0
03E0
03E0
03E0
03E0
03E0
03E0
03E0
03E0
03E0
03E0
03E0
03E0
03E0
03E0
03E0
03E0
03E0
03E0
03E0
03E0
03E0
03E0
03E0
03E0
03E0
03E0
03E0
03E0
03E0
07E0
07E0
0FF0
FFFF
FFFF
ENDCHAR
STARTCHAR $00CE
ENCODING 206
SWIDTH 164 0
DWIDTH 11 0
BBX 16 57 3 0
BITMAP
0180
03C0
07E0
0FF0
1FFC
3C3E
780F
E007
4001
0000
0000
0000
FFFF
FFFF
0FF8
07F0
07E0
07E0
03E0
03E0
03E0
03E0
03E0
03E0
03E0
03E0
03E0
03E0
03E0
03E0
03E0
03E0
03E0
03E0
03E0
03E0
03E0
03E0
03E0
03E0
03E0
03E0
03E0
03E0
03E0
03E0
03E0
03E0
03E0
03E0
03E0
03E0
07E0
07E0
0FF0
FFFF
FFFF
ENDCHAR
STARTCHAR $00CF
ENCODING 207
SWIDTH 164 0
DWIDTH 11 0
BBX 17 57 3 0
BITMAP
380E00
7C1F00
FC1F00
FC1F80
7C1F00
380E00
000000
000000
000000
000000
000000
000000
FFFF00
FFFF00
0FF800
07F000
07E000
07E000
03E000
03E000
03E000
03E000
03E000
03E000
03E000
03E000
03E000
03E000
03E000
03E000
03E000
03E000
03E000
03E000
03E000
03E000
03E000
03E000
03E000
03E000
03E000
03E000
03E000
03E000
03E000
03E000
03E000
03E000
03E000
03E000
03E000
03E000
07E000
07E000
0FF000
FFFF00
FFFF00
ENDCHAR
STARTCHAR $00D0
ENCODING 208
SWIDTH 366 0
DWIDTH 24 0
BBX 43 45 3 0
BITMAP
800000000000
FFFFFFC00000
1FFFFFF80000
07FFFFFE0000
07E0007F8000
03E0001FE000
03E00007F000
03E00001F800
03E00000FC00
03E000007C00
03E000003E00
03E000003F00
03E000001F00
03E000001F80
03E000000F80
03E000000F80
03E000000FC0
03E0000007C0
03E0000007C0
03E0000007C0
FFFFFE0007C0
FFFFFC0007C0
FFFFFC0007E0
03E0000007E0
03E0000007E0
03E0000007C0
03E0000007C0
03E0000007C0
03E0000007C0
03E000000FC0
03E000000F80
03E000000F80
03E000001F80
03E000001F00
03E000003F00
03E000003E00
03E000007C00
03E00000FC00
03E00001F800
03E00007F000
07E0000FE000
07F0007F8000
07FFFFFE0000
1FFFFFF80000
FFFFFF800000
ENDCHAR
STARTCHAR $00D1
ENCODING 209
SWIDTH 374 0
DWIDTH 25 0
BBX 44 57 3 0
BITMAP
000000010000
0001FE030000
0007FFFE0000
000FFFFE0000
000FFFFC0000
001807F80000
001000000000
000000000000
000000000000
000000000000
000000000000
000000000000
FFF00007FFF0
3FF80003FFE0
0FF800007F00
07FC00003E00
07FC00003E00
03FE00003E00
03FE00003E00
03FF00003E00
03FF00003E00
03DF80003E00
03DFC0003E00
03CFC0003E00
03C7E0003E00
03C7E0003E00
03C3F0003E00
03C1F8003E00
03C1F8003E00
03C0FC003E00
03C07E003E00
03C07E003E00
03C03F003E00
03C01F003E00
03C01F803E00
03C00FC03E00
03C007C03E00
03C007E03E00
03C003F03E00
03C001F03E00
03C001F83E00
03C000FC3E00
03C0007E3E00
03C0007E3E00
03C0003F3E00
03C0001FBE00
03C0001FBE00
03C0000FFE00
03C00007FE00
03C00007FE00
03C00003FE00
03C00001FE00
07C00001FE00
07E00000FE00
0FE000007E00
FFFE00007E00
FFFF00003E00
ENDCHAR
STARTCHAR $00D2
ENCODING 210
SWIDTH 382 0
DWIDTH 25 0
BBX 44 58 4 0
BITMAP
000700000000
000F80000000
000FE0000000
0007F8000000
0003FC000000
00007F000000
00001FC00000
000003E00000
000000E00000
000000000000
000000000000
000000000000
000000000000
0000FFE00000
0007FFFC0000
001FFFFF0000
007FFFFFC000
00FF803FE000
01FC0007F800
03F00003FC00
07E00000FC00
0FC000007E00
1F8000003F00
1F0000001F80
3E0000001F80
3E0000000F80
7E0000000FC0
7C00000007C0
7C00000007E0
FC00000003E0
F800000003E0
F800000003E0
F800000003E0
F800000003E0
F800000003E0
F800000003F0
F800000003E0
F800000003E0
F800000003E0
F800000003E0
F800000003E0
FC00000003E0
FC00000007E0
7C00000007C0
7E0000000FC0
7E0000000F80
3F0000001F80
3F0000001F00
1F8000003F00
0FC000007E00
0FE00000FC00
07F80001F800
03FC0007F000
01FF803FE000
007FFFFFC000
003FFFFF0000
000FFFFC0000
0000FFE00000
ENDCHAR
STARTCHAR $00D3
ENCODING 211
SWIDTH 382 0
DWIDTH 25 0
BBX 44 58 4 0
BITMAP
0000000C0000
0000003E0000
000000FE0000
000001FE0000
000007F80000
00001FC00000
00007F000000
0000F8000000
0000E0000000
000000000000
000000000000
000000000000
000000000000
0000FFE00000
0007FFFC0000
001FFFFF0000
007FFFFFC000
00FF803FE000
01FC0007F800
03F00003FC00
07E00000FC00
0FC000007E00
1F8000003F00
1F0000001F80
3E0000001F80
3E0000000F80
7E0000000FC0
7C00000007C0
7C00000007E0
FC00000003E0
F800000003E0
F800000003E0
F800000003E0
F800000003E0
F800000003E0
F800000003F0
F800000003E0
F800000003E0
F800000003E0
F800000003E0
F800000003E0
FC00000003E0
FC00000007E0
7C00000007C0
7E0000000FC0
7E0000000F80
3F0000001F80
3F0000001F00
1F8000003F00
0FC000007E00
0FE00000FC00
07F80001F800
03FC0007F000
01FF803FE000
007FFFFFC000
003FFFFF0000
000FFFFC0000
0000FFE00000
ENDCHAR
STARTCHAR $00D4
ENCODING 212
SWIDTH 382 0
DWIDTH 25 0
BBX 44 58 4 0
BITMAP
000002000000
000007000000
00000F800000
00001FC00000
00003FE00000
00007DF00000
0000F0F80000
0001E03C0000
0003800C0000
000100040000
000000000000
000000000000
000000000000
0000FFE00000
0007FFFC0000
001FFFFF0000
007FFFFFC000
00FF803FE000
01FC0007F800
03F00003FC00
07E00000FC00
0FC000007E00
1F8000003F00
1F0000001F80
3E0000001F80
3E0000000F80
7E0000000FC0
7C00000007C0
7C00000007E0
FC00000003E0
F800000003E0
F800000003E0
F800000003E0
F800000003E0
F800000003E0
F800000003F0
F800000003E0
F800000003E0
F800000003E0
F800000003E0
F800000003E0
FC00000003E0
FC00000007E0
7C00000007C0
7E0000000FC0
7E0000000F80
3F0000001F80
3F0000001F00
1F8000003F00
0FC000007E00
0FE00000FC00
07F80001F800
03FC0007F000
01FF803FE000
007FFFFFC000
003FFFFF0000
000FFFFC0000
0000FFE00000
ENDCHAR
STARTCHAR $00D5
ENCODING 213
SWIDTH 382 0
DWIDTH 25 0
BBX 44 58 4 0
BITMAP
000000010000
0001FE030000
0007FFFF0000
0007FFFE0000
000FFFFC0000
000807F80000
001000000000
000000000000
000000000000
000000000000
000000000000
000000000000
000000000000
0000FFE00000
0007FFFC0000
001FFFFF0000
007FFFFFC000
00FF803FE000
01FC0007F800
03F00003FC00
07E00000FC00
0FC000007E00
1F8000003F00
1F0000001F80
3E0000001F80
3E0000000F80
7E0000000FC0
7C00000007C0
7C00000007E0
FC00000003E0
F800000003E0
F800000003E0
F800000003E0
F800000003E0
F800000003E0
F800000003F0
F800000003E0
F800000003E0
F800000003E0
F800000003E0
F800000003E0
FC00000003E0
FC00000007E0
7C00000007C0
7E0000000FC0
7E0000000F80
3F0000001F80
3F0000001F00
1F8000003F00
0FC000007E00
0FE00000FC00
07F80001F800
03FC0007F000
01FF803FE000
007FFFFFC000
003FFFFF0000
000FFFFC0000
0000FFE00000
ENDCHAR
STARTCHAR $00D6
ENCODING 214
SWIDTH 382 0
DWIDTH 25 0
BBX 44 57 4 0
BITMAP
0001C0700000
0003E0780000
0003E0FC0000
0003E0FC0000
0003E0F80000
0001C0700000
000000000000
000000000000
000000000000
000000000000
000000000000
000000000000
0000FFE00000
0007FFFC0000
001FFFFF0000
007FFFFFC000
00FF803FE000
01FC0007F800
03F00003FC00
07E00000FC00
0FC000007E00
1F8000003F00
1F0000001F80
3E0000001F80
3E0000000F80
7E0000000FC0
7C00000007C0
7C00000007E0
FC00000003E0
F800000003E0
F800000003E0
F800000003E0
F800000003E0
F800000003E0
F800000003F0
F800000003E0
F800000003E0
F800000003E0
F800000003E0
F800000003E0
FC00000003E0
FC00000007E0
7C00000007C0
7E0000000FC0
7E0000000F80
3F0000001F80
3F0000001F00
1F8000003F00
0FC000007E00
0FE00000FC00
07F80001F800
03FC0007F000
01FF803FE000
007FFFFFC000
003FFFFF0000
000FFFFC0000
0000FFE00000
ENDCHAR
STARTCHAR $00D7
ENCODING 215
SWIDTH 232 0
DWIDTH 15 0
BBX 21 22 5 5
BITMAP
200020
600070
F000F8
F801F0
7C03E0
3E07C0
1F0F80
0F9F00
07FE00
03FC00
01F800
01F800
03FC00
07FE00
0F9F00
1F0F80
3E07C0
7C03E0
F801F0
F000F8
600070
200020
ENDCHAR
STARTCHAR $00D8
ENCODING 216
SWIDTH 382 0
DWIDTH 25 0
BBX 45 48 3 -1
BITMAP
0000000000F8
0000000001F0
00007FE001E0
0003FFFE03E0
000FFFFF87C0
003FFFFFC780
007FC03FEF00
00FE0007FF00
01F80001FE00
03F00000FE00
07E000007F00
0FC00000FF00
0F800001FF80
1F800003CFC0
1F000007C7C0
3F00000F87E0
3E00001F03E0
3E00003E03E0
7E00007C03F0
7C0000F801F0
7C0000F001F0
7C0001E001F0
7C0003C001F0
7C00078001F8
7C000F8001F8
7C001F0001F8
7C003E0001F8
7C007C0001F0
7C00F80001F0
7C01F00001F0
7E01E00001F0
3E03C00003F0
3E07800003E0
3F0F000003E0
1F1F000007E0
1FBE00000FC0
0FFC00000FC0
0FF800001F80
07F000003F00
03F000007E00
07F80000FE00
07FE0003FC00
0F7FC01FF000
1F3FFFFFE000
3E0FFFFF8000
7C03FFFE0000
F8007FF00000
F00000000000
ENDCHAR
STARTCHAR $00D9
ENCODING 217
SWIDTH 360 0
DWIDTH 24 0
BBX 45 58 2 0
BITMAP
0001C0000000
0003E0000000
0003F8000000
0001FE000000
00007F800000
00001FC00000
000003F00000
000000F80000
000000180000
000000000000
000000000000
000000000000
000000000000
FFFF0007FFF8
FFFF0003FFF0
0FF000007F00
07E000003F00
07E000001E00
07E000001E00
03E000001E00
03E000001E00
03C000001E00
03C000001E00
03C000001E00
03C000001E00
03C000001E00
03C000001E00
03C000001E00
03C000001E00
03C000001E00
03C000001E00
03C000001E00
03C000001E00
03C000001E00
03C000001E00
03C000001E00
03C000001E00
03C000001E00
03C000001E00
03C000001E00
03C000001E00
03C000001E00
03C000001E00
03E000001E00
03E000001E00
03E000003E00
03E000003C00
03F000003C00
01F000007C00
01F800007800
01F80000F800
00FC0001F000
007F0007F000
007FE01FE000
001FFFFFC000
000FFFFF0000
0003FFFE0000
00007FE00000
ENDCHAR
STARTCHAR $00DA
ENCODING 218
SWIDTH 360 0
DWIDTH 24 0
BBX 45 58 2 0
BITMAP
0000000C0000
0000003E0000
000000FE0000
000003FE0000
000007F00000
00001FC00000
00007E000000
0000F8000000
000040000000
000000000000
000000000000
000000000000
000000000000
FFFF0007FFF8
FFFF0007FFF8
0FF000007F80
07E000003F00
07E000003E00
07E000001E00
03E000001E00
03E000001E00
03C000001E00
03C000001E00
03C000001E00
03C000001E00
03C000001E00
03C000001E00
03C000001E00
03C000001E00
03C000001E00
03C000001E00
03C000001E00
03C000001E00
03C000001E00
03C000001E00
03C000001E00
03C000001E00
03C000001E00
03C000001E00
03C000001E00
03C000001E00
03C000001E00
03C000001E00
03E000001E00
03E000001E00
03E000003E00
03E000003C00
03F000003C00
01F000007C00
01F800007800
01F80000F800
00FC0001F000
007F0007F000
007FE01FE000
001FFFFFC000
000FFFFF0000
0003FFFC0000
00007FE00000
ENDCHAR
STARTCHAR $00DB
ENCODING 219
SWIDTH 360 0
DWIDTH 24 0
BBX 45 58 2 0
BITMAP
000002000000
000007000000
00000F800000
00001FC00000
00003FE00000
0000FDF00000
0001F0780000
0003C03C0000
0001800C0000
000000000000
000000000000
000000000000
000000000000
FFFF0007FFF8
FFFF0007FFF8
0FF000007F80
07E000003F00
07E000003E00
07E000001E00
03E000001E00
03E000001E00
03C000001E00
03C000001E00
03C000001E00
03C000001E00
03C000001E00
03C000001E00
03C000001E00
03C000001E00
03C000001E00
03C000001E00
03C000001E00
03C000001E00
03C000001E00
03C000001E00
03C000001E00
03C000001E00
03C000001E00
03C000001E00
03C000001E00
03C000001E00
03C000001E00
03C000001E00
03E000001E00
03E000001E00
03E000003E00
03E000003C00
03F000003C00
01F000007C00
01F800007800
01F80000F800
00FC0001F000
007F0007F000
007FE01FE000
001FFFFFC000
000FFFFF0000
0003FFFC0000
00007FE00000
ENDCHAR
STARTCHAR $00DC
ENCODING 220
SWIDTH 360 0
DWIDTH 24 0
BBX 45 57 2 0
BITMAP
0000701C0000
0000F03E0000
0001F83E0000
0001F83E0000
0000F03E0000
0000F01C0000
000000000000
000000000000
000000000000
000000000000
000000000000
000000000000
FFFF0007FFF8
FFFF0007FFF8
0FF000007F80
07E000003F00
07E000003E00
07E000001E00
03E000001E00
03E000001E00
03C000001E00
03C000001E00
03C000001E00
03C000001E00
03C000001E00
03C000001E00
03C000001E00
03C000001E00
03C000001E00
03C000001E00
03C000001E00
03C000001E00
03C000001E00
03C000001E00
03C000001E00
03C000001E00
03C000001E00
03C000001E00
03C000001E00
03C000001E00
03C000001E00
03C000001E00
03E000001E00
03E000001E00
03E000003E00
03E000003C00
03F000003C00
01F000007C00
01F800007800
01F80000F800
00FC0001F000
007F0007F000
007FE01FE000
001FFFFFC000
000FFFFF0000
0003FFFC0000
00007FE00000
ENDCHAR
STARTCHAR $00DD
ENCODING 221
SWIDTH 306 0
DWIDTH 20 0
BBX 43 58 -1 0
BITMAP
000000040000
0000001E0000
0000003E0000
000000FE0000
000003FC0000
00000FF00000
00001F800000
00007E000000
000070000000
000000000000
000000000000
000000000000
000000000000
800080200020
FFFF803FFFE0
0FFC0007FF00
07F00001FC00
03F80001F800
01F80001F000
00FC0001E000
00FC0003E000
007E0003C000
003E00078000
003F00078000
001F000F0000
001F800E0000
000F801E0000
0007C01C0000
0007C0380000
0003E0380000
0003E0700000
0001F0F00000
0000F8E00000
0000F9E00000
00007DC00000
00007F800000
00003F800000
00003F000000
00001F000000
00001F000000
00001F000000
00001F000000
00001F000000
00001F000000
00001F000000
00001F000000
00001F000000
00001F000000
00001F000000
00001F000000
00001F000000
00001F000000
00001F000000
00001F000000
00003F800000
00003F800000
0003FFF80000
0007FFFC0000
ENDCHAR
STARTCHAR $00DE
ENCODING 222
SWIDTH 270 0
DWIDTH 18 0
BBX 30 45 3 0
BITMAP
FFFF0000
FFFF0000
0FF80000
07F00000
07E00000
03E00000
03E00000
03E00000
03E00000
03E00000
03FFF000
03FFFF00
03FFFFC0
03E00FE0
03E003F0
03E001F8
03E000F8
03E0007C
03E0007C
03E0003C
03E0003C
03E0003C
03E0003C
03E0003C
03E0003C
03E0007C
03E0007C
03E00078
03E000F8
03E001F0
03E003E0
03E00FC0
03FFFF00
03FFFC00
03FE0000
03E00000
03E00000
03E00000
03E00000
03E00000
07E00000
07E00000
0FF00000
FFFF0000
FFFF0000
ENDCHAR
STARTCHAR $00DF
ENCODING 223
SWIDTH 292 0
DWIDTH 19 0
BBX 34 50 2 0
BITMAP
0003F80000
000FFE0000
003FFF8000
007C0FC000
00F803E000
00F001E000
01E001F000
01E000F000
03E000F000
03C000F000
03C000F000
03C001E000
03C001E000
07C003C000
07C007C000
07C0078000
07C00F0000
07C01E0000
07C01C0000
7FC03C0000
FFC0380000
7FC0780000
07C0780000
07C0780000
07C07C0000
07C07E0000
07C07F0000
07C03F8000
07C03FE000
07C01FF000
07C00FFC00
07C003FE00
07C000FE00
07C0007F00
07C0003F80
07C0001F80
07C0000FC0
07C00007C0
07C00007C0
07C00007C0
07C06007C0
07C06007C0
07C06007C0
07C0600780
07C0600780
07C0700F00
07C0F81F00
07E07FFE00
0FF03FFC00
FFFE07E000
ENDCHAR
STARTCHAR $00E0
ENCODING 224
SWIDTH 246 0
DWIDTH 16 0
BBX 30 47 2 0
BITMAP
01000000
03C00000
07E00000
07F80000
03FE0000
007F0000
001FC000
0003F000
0000F000
00001000
00000000
00000000
00000000
00000000
00000000
007FC000
07FFF800
1FFFFC00
1F007E00
1E001F00
0C000F80
0C000F80
08000F80
00000F80
00000780
00000780
00000780
0000FF80
007FFF80
03FFFF80
07FC0780
1FC00780
3F000780
3E000780
7C000780
7C000F80
78000F80
F8000F80
F8000F80
78001F80
7C007F80
7E00EF80
7F03EF80
3FFF8FC0
1FFF0FC0
0FFE0FFC
03F00FFC
ENDCHAR
STARTCHAR $00E1
ENCODING 225
SWIDTH 246 0
DWIDTH 16 0
BBX 30 46 2 0
BITMAP
00000E00
00001E00
00007F00
0001FE00
0007F800
000FE000
003F0000
007C0000
00600000
00000000
00000000
00000000
00000000
00000000
007FC000
07FFF800
1FFFFC00
1F007E00
1E001F00
0C000F80
0C000F80
08000F80
00000F80
00000780
00000780
00000780
0000FF80
007FFF80
03FFFF80
07FC0780
1FC00780
3F000780
3E000780
7C000780
7C000F80
78000F80
F8000F80
F8000F80
78001F80
7C007F80
7E00EF80
7F03EF80
3FFF8FC0
1FFF0FC0
0FFE0FFC
03F00FFC
ENDCHAR
STARTCHAR $00E2
ENCODING 226
SWIDTH 246 0
DWIDTH 16 0
BBX 30 46 2 0
BITMAP
00060000
000F0000
001F8000
003FC000
007FE000
00F9F000
01E07800
03803C00
03000800
00000000
00000000
00000000
00000000
00000000
007FC000
07FFF800
1FFFFC00
1F007E00
1E001F00
0C000F80
0C000F80
08000F80
00000F80
00000780
00000780
00000780
0000FF80
007FFF80
03FFFF80
07FC0780
1FC00780
3F000780
3E000780
7C000780
7C000F80
78000F80
F8000F80
F8000F80
78001F80
7C007F80
7E00EF80
7F03EF80
3FFF8FC0
1FFF0FC0
0FFE0FFC
03F00FFC
ENDCHAR
STARTCHAR $00E3
ENCODING 227
SWIDTH 246 0
DWIDTH 16 0
BBX 30 46 2 0
BITMAP
00000180
01FFFF00
07FFFF00
0FFFFE00
0FFFF800
18000000
00000000
00000000
00000000
00000000
00000000
00000000
00000000
00000000
007FC000
07FFF800
1FFFFC00
1F007E00
1E001F00
0C000F80
0C000F80
08000F80
00000F80
00000780
00000780
00000780
0000FF80
007FFF80
03FFFF80
07FC0780
1FC00780
3F000780
3E000780
7C000780
7C000F80
78000F80
F8000F80
F8000F80
78001F80
7C007F80
7E00EF80
7F03EF80
3FFF8FC0
1FFF0FC0
0FFE0FFC
03F00FFC
ENDCHAR
STARTCHAR $00E4
ENCODING 228
SWIDTH 246 0
DWIDTH 16 0
BBX 30 45 2 0
BITMAP
01C03800
03E07C00
03E07C00
03F07C00
03E07C00
01C03800
00000000
00000000
00000000
00000000
00000000
00000000
00000000
007FC000
07FFF800
1FFFFC00
1F007E00
1E001F00
0C000F80
0C000F80
08000F80
00000F80
00000780
00000780
00000780
0000FF80
007FFF80
03FFFF80
07FC0780
1FC00780
3F000780
3E000780
7C000780
7C000F80
78000F80
F8000F80
F8000F80
78001F80
7C007F80
7E00EF80
7F03EF80
3FFF8FC0
1FFF0FC0
0FFE0FFC
03F00FFC
ENDCHAR
STARTCHAR $00E5
ENCODING 229
SWIDTH 246 0
DWIDTH 16 0
BBX 30 47 2 0
BITMAP
00078000
001FE000
001C7000
00383000
00303800
00303800
00383800
00387000
001FE000
0007C000
00000000
00000000
00000000
00000000
00000000
007FC000
07FFF800
1FFFFC00
1F007E00
1E001F00
0C000F80
0C000F80
08000F80
00000F80
00000780
00000780
00000780
0000FF80
007FFF80
03FFFF80
07FC0780
1FC00780
3F000780
3E000780
7C000780
7C000F80
78000F80
F8000F80
F8000F80
78001F80
7C007F80
7E00EF80
7F03EF80
3FFF8FC0
1FFF0FC0
0FFE0FFC
03F00FFC
ENDCHAR
STARTCHAR $00E6
ENCODING 230
SWIDTH 404 0
DWIDTH 27 0
BBX 50 32 2 0
BITMAP
007FC000FF0000
07FFF807FFE000
1FFFFC1FFFF800
1F807E3F00FC00
1E001F7C003E00
0C000FF8001F00
0C000FF0001F00
0C000FE0000F80
00000FE0000F80
000007C0000F80
000007C0000FC0
000007FFFFFFC0
0000FFFFFFFFC0
007FFFFFFFFF80
03FFFF80000000
07FC0780000000
1FC00780000000
3F0007C0000000
3E0007C0000000
7C0007C0000000
7C000FC0000000
78000FE0000000
F8000FE0000000
F8000FF0000000
78001FF8000000
7C007DFC000000
7E00FCFF000100
7F07F87FC01F00
3FFFE03FFFFE00
1FFFC01FFFFC00
0FFF0007FFF000
03F80000FF8000
ENDCHAR
STARTCHAR $00E7
ENCODING 231
SWIDTH 254 0
DWIDTH 17 0
BBX 29 45 3 -13
BITMAP
0007FC00
003FFFC0
00FFFFF0
03F003F0
07C000E0
0F800060
1F000060
3E000060
3E000000
7C000000
7C000000
7C000000
F8000000
F8000000
F8000000
F8000000
F8000000
F8000000
F8000000
FC000000
7C000000
7C000000
7E000000
3E000000
3F000000
1F800000
0FC00000
07E00038
03FC03F0
01FFFFE0
007FFF00
000FF800
00030000
00070000
000EC000
000FF000
001FF800
00003C00
00003C00
00003C00
00003C00
00003C00
007FF800
007FF000
001FC000
ENDCHAR
STARTCHAR $00E8
ENCODING 232
SWIDTH 262 0
DWIDTH 17 0
BBX 30 47 3 0
BITMAP
00800000
01E00000
03F00000
03FC0000
01FF0000
003F8000
000FE000
0001F800
00007800
00000800
00000000
00000000
00000000
00000000
00000000
000FF000
007FFE00
01FFFF00
03E00FC0
07C007C0
0F8003E0
1F0001F0
3E0001F0
3C0000F8
7C0000F8
7C0000F8
7FFFFFFC
FFFFFFF8
FFFFFFF8
F8000000
F8000000
F8000000
F8000000
F8000000
FC000000
7C000000
7C000000
7E000000
3F000000
3F000000
1FC00000
0FE00030
0FFC01F0
03FFFFE0
01FFFFC0
007FFF00
001FF000
ENDCHAR
STARTCHAR $00E9
ENCODING 233
SWIDTH 262 0
DWIDTH 17 0
BBX 30 47 3 0
BITMAP
00000200
00000F00
00001F00
00007F80
0001FF00
0003F800
000FE000
003F0000
003C0000
00200000
00000000
00000000
00000000
00000000
00000000
000FF000
007FFE00
01FFFF00
03E00FC0
07C007C0
0F8003E0
1F0001F0
3E0001F0
3C0000F8
7C0000F8
7C0000F8
7FFFFFFC
FFFFFFF8
FFFFFFF8
F8000000
F8000000
F8000000
F8000000
F8000000
FC000000
7C000000
7C000000
7E000000
3F000000
3F000000
1FC00000
0FE00030
0FFC01F0
03FFFFE0
01FFFFC0
007FFF00
001FF000
ENDCHAR
STARTCHAR $00EA
ENCODING 234
SWIDTH 262 0
DWIDTH 17 0
BBX 30 46 3 0
BITMAP
00010000
00038000
0007C000
001FE000
003FF000
007C7C00
00F83E00
00E00E00
00800200
00000000
00000000
00000000
00000000
00000000
000FF000
007FFE00
01FFFF00
03E00FC0
07C007C0
0F8003E0
1F0001F0
3E0001F0
3C0000F8
7C0000F8
7C0000F8
7FFFFFFC
FFFFFFF8
FFFFFFF0
F8000000
F8000000
F8000000
F8000000
F8000000
FC000000
7C000000
7C000000
7E000000
3F000000
3F800000
1FC00000
0FE00030
0FFC01F0
03FFFFE0
01FFFFC0
007FFF00
001FF000
ENDCHAR
STARTCHAR $00EB
ENCODING 235
SWIDTH 262 0
DWIDTH 17 0
BBX 30 45 3 0
BITMAP
00701C00
00F03E00
01F83E00
01F83E00
00F83E00
00F01C00
00000000
00000000
00000000
00000000
00000000
00000000
00000000
000FF000
007FFE00
01FFFF00
03E00FC0
07C007C0
0F8003E0
1F0001F0
3E0001F0
3C0000F8
7C0000F8
7C0000F8
7FFFFFFC
FFFFFFF8
FFFFFFF0
F8000000
F8000000
F8000000
F8000000
F8000000
FC000000
7C000000
7C000000
7E000000
3F000000
3F800000
1FC00000
0FE00030
0FFC01F0
03FFFFE0
01FFFFC0
007FFF00
001FF000
ENDCHAR
STARTCHAR $00EC
ENCODING 236
SWIDTH 134 0
DWIDTH 9 0
BBX 18 46 -1 0
BITMAP
600000
F80000
FE0000
FF8000
1FC000
07F000
00FC00
003E00
000400
000000
000000
000000
000000
000000
000800
1FF800
03F800
01F800
00F800
00F800
00F800
00F800
00F800
00F800
00F800
00F800
00F800
00F800
00F800
00F800
00F800
00F800
00F800
00F800
00F800
00F800
00F800
00F800
00F800
00F800
00F800
00F800
00F800
00FC00
01FE00
1FFFC0
ENDCHAR
STARTCHAR $00ED
ENCODING 237
SWIDTH 134 0
DWIDTH 9 0
BBX 15 46 2 0
BITMAP
000E
003E
007E
01FE
07F8
1FC0
7F00
7800
4000
0000
0000
0000
0000
0000
0040
FFC0
1FC0
0FC0
07C0
07C0
07C0
07C0
07C0
07C0
07C0
07C0
07C0
07C0
07C0
07C0
07C0
07C0
07C0
07C0
07C0
07C0
07C0
07C0
07C0
07C0
07C0
07C0
07C0
07E0
0FF0
FFFE
ENDCHAR
STARTCHAR $00EE
ENCODING 238
SWIDTH 134 0
DWIDTH 9 0
BBX 16 46 1 0
BITMAP
0100
0180
07C0
0FF0
1FF8
3E7C
783E
F00F
C002
0000
0000
0000
0000
0000
0020
7FE0
0FE0
07E0
03E0
03E0
03E0
03E0
03E0
03E0
03E0
03E0
03E0
03E0
03E0
03E0
03E0
03E0
03E0
03E0
03E0
03E0
03E0
03E0
03E0
03E0
03E0
03E0
03E0
07F0
3FFE
7FFF
ENDCHAR
STARTCHAR $00EF
ENCODING 239
SWIDTH 134 0
DWIDTH 9 0
BBX 16 45 1 0
BITMAP
700E
F81F
F83F
F83F
F81F
700E
0000
0000
0000
0000
0000
0000
0000
0020
7FE0
0FE0
07E0
03E0
03E0
03E0
03E0
03E0
03E0
03E0
03E0
03E0
03E0
03E0
03E0
03E0
03E0
03E0
03E0
03E0
03E0
03E0
03E0
03E0
03E0
03E0
03E0
03E0
03F0
07F8
7FFF
ENDCHAR
STARTCHAR $00F0
ENCODING 240
SWIDTH 292 0
DWIDTH 19 0
BBX 33 50 3 0
BITMAP
0000800000
0001F00000
0000F80000
00003C0100
00001E0F00
00000F3F80
000007FC00
000007F000
00003FC000
0000FFE000
0003F1F000
0003C1F000
000100F800
000000F800
0000007800
0000007C00
0000003C00
0000003C00
000FF03E00
007FFE3E00
01FFFF1E00
03E007DE00
0FC003FE00
0F8000FF00
1F0000FF00
3E00007F00
3E00003F00
7C00003F00
7C00003F00
7C00001F00
F800001F00
F800001F00
F800001F00
F800001F00
F800001F00
F800001F00
F800001E00
FC00001E00
7C00003E00
7C00003E00
7E00003C00
3E00007C00
3F00007800
1F0000F800
1F8001F000
0FC003E000
07F00FC000
01FFFF8000
007FFE0000
001FF80000
ENDCHAR
STARTCHAR $00F1
ENCODING 241
SWIDTH 306 0
DWIDTH 20 0
BBX 38 46 2 0
BITMAP
0000000800
000FE03800
003FFFF000
007FFFF000
007FFFE000
00C07F8000
0080000000
0000000000
0000000000
0000000000
0000000000
0000000000
0000000000
0000000000
00003F8000
FFC1FFE000
1FC3FFF800
0FC7FFFC00
07CF81FE00
07DE007E00
07FC003F00
07F0001F00
07F0001F00
07E0001F00
07C0000F80
07C0000F80
07C0000F80
07C0000F80
07C0000F80
07C0000F80
07C0000F80
07C0000F80
07C0000F80
07C0000F80
07C0000F80
07C0000F80
07C0000F80
07C0000F80
07C0000F80
07C0000F80
07C0000F80
07C0000F80
07C0000F80
07E0000F80
0FF0001FC0
FFFE001FFC
ENDCHAR
STARTCHAR $00F2
ENCODING 242
SWIDTH 292 0
DWIDTH 19 0
BBX 33 47 3 0
BITMAP
0040000000
01E0000000
01F8000000
01FC000000
00FF000000
003FC00000
0007E00000
0001F80000
0000380000
0000080000
0000000000
0000000000
0000000000
0000000000
0000000000
000FF80000
007FFF0000
01FFFFC000
03F007E000
07C003F000
0F8001F800
1F0000FC00
3E00007E00
3E00003E00
7C00003F00
7C00001F00
7C00001F00
F800001F80
F800000F80
F800000F80
F800000F80
F800000F80
F800000F80
F800000F80
F800000F80
7C00001F80
7C00001F00
7E00001F00
3E00003F00
3F00003E00
1F00007C00
0F8000FC00
07E001F800
03F007E000
01FFFFC000
007FFF0000
000FF80000
ENDCHAR
STARTCHAR $00F3
ENCODING 243
SWIDTH 292 0
DWIDTH 19 0
BBX 33 47 3 0
BITMAP
0000010000
0000038000
00000FC000
00003FC000
00007F8000
0001FC0000
0007F00000
001F800000
001E000000
0010000000
0000000000
0000000000
0000000000
0000000000
0000000000
000FF80000
007FFF0000
01FFFFC000
03F007E000
07C003F000
0F8001F800
1F0000FC00
3E00007E00
3E00003E00
7C00003F00
7C00001F00
7C00001F00
F800001F80
F800000F80
F800000F80
F800000F80
F800000F80
F800000F80
F800000F80
F800000F80
7C00001F80
7C00001F00
7E00001F00
3E00003F00
3F00003E00
1F00007C00
0F8000FC00
07E001F800
03F007E000
01FFFFC000
007FFF0000
000FF80000
ENDCHAR
STARTCHAR $00F4
ENCODING 244
SWIDTH 292 0
DWIDTH 19 0
BBX 33 46 3 0
BITMAP
0000C00000
0001E00000
0003F00000
0007F80000
000FFC0000
001F3E0000
003C0F0000
0070078000
0060018000
0000000000
0000000000
0000000000
0000000000
0000000000
000FF80000
007FFF0000
01FFFFC000
03F007E000
07C003F000
0F8001F800
1F0000FC00
3E00007E00
3E00003E00
7C00003F00
7C00001F00
7C00001F00
F800001F80
F800000F80
F800000F80
F800000F80
F800000F80
F800000F80
F800000F80
F800000F80
7C00001F80
7C00001F00
7E00001F00
3E00003F00
3F00003E00
1F00007C00
0F8000FC00
07E001F800
03F007E000
01FFFFC000
007FFF0000
000FF80000
ENDCHAR
STARTCHAR $00F5
ENCODING 245
SWIDTH 292 0
DWIDTH 19 0
BBX 33 46 3 0
BITMAP
0000004000
007F80C000
00FFFFC000
01FFFF8000
03FFFF0000
0301FE0000
0600000000
0000000000
0000000000
0000000000
0000000000
0000000000
0000000000
0000000000
000FF80000
007FFF0000
01FFFFC000
03F007E000
07C003F000
0F8001F800
1F0000FC00
3E00007E00
3E00003E00
7C00003F00
7C00001F00
7C00001F00
F800001F80
F800000F80
F800000F80
F800000F80
F800000F80
F800000F80
F800000F80
F800000F80
7C00001F80
7C00001F00
7E00001F00
3E00003F00
3F00003E00
1F00007C00
0F8000FC00
07E001F800
03F007E000
01FFFFC000
007FFF0000
000FF80000
ENDCHAR
STARTCHAR $00F6
ENCODING 246
SWIDTH 292 0
DWIDTH 19 0
BBX 33 45 3 0
BITMAP
00380E0000
007C1F0000
00FC1F0000
00FC1F8000
007C1F0000
00380E0000
0000000000
0000000000
0000000000
0000000000
0000000000
0000000000
0000000000
000FF80000
007FFF0000
01FFFFC000
03F007E000
07C003F000
0F8001F800
1F0000FC00
3E00007E00
3E00003E00
7C00003F00
7C00001F00
7C00001F00
F800001F80
F800000F80
F800000F80
F800000F80
F800000F80
F800000F80
F800000F80
F800000F80
7C00001F80
7C00001F00
7E00001F00
3E00003F00
3F00003E00
1F00007C00
0F8000FC00
07E001F800
03F007E000
01FFFFC000
007FFF0000
000FF80000
ENDCHAR
STARTCHAR $00F7
ENCODING 247
SWIDTH 284 0
DWIDTH 19 0
BBX 28 28 5 2
BITMAP
00070000
000F8000
000FC000
000FC000
000F8000
00070000
00000000
00000000
00000000
00000000
00000000
00000000
7FFFFFF0
FFFFFFF0
FFFFFFE0
FFFFFFE0
00000000
00000000
00000000
00000000
00000000
00000000
00070000
000F8000
000FC000
000FC000
000F8000
00070000
ENDCHAR
STARTCHAR $00F8
ENCODING 248
SWIDTH 292 0
DWIDTH 19 0
BBX 33 33 3 -1
BITMAP
000FF80F80
007FFF1F00
01FFFF9E00
03F00FFC00
07C003FC00
0F8001F800
1F0001FC00
3E0003FE00
3E0007FE00
7C0007BF00
7C000F1F00
7C001E1F00
F8003E1F80
F8007C0F80
F800F80F80
F801F00F80
F803E00F80
F807C00F80
F807800F80
FC0F000F80
7C1E001F80
7C3E001F00
7C7C001F00
3EF8003F00
3FF0003E00
1FE0007C00
0FC000FC00
07E001F800
0FF007F000
1FFFFFC000
3E7FFF0000
7C0FF80000
F800000000
ENDCHAR
STARTCHAR $00F9
ENCODING 249
SWIDTH 300 0
DWIDTH 20 0
BBX 38 47 1 0
BITMAP
0010000000
0078000000
007E000000
007F800000
003FC00000
000FF00000
0001FC0000
00007E0000
00000F0000
0000020000
0000000000
0000000000
0000000000
0000000000
0000000000
0040000080
FFC001FF80
1FC0003F80
0FC0001F80
07C0001F80
07C0000F80
07C0000F00
07C0000F00
07C0000F00
07C0000F00
07C0000F00
07C0000F00
07C0000F00
07C0000F00
07C0000F00
07C0000F00
07C0000F00
07C0000F00
07C0000F00
07C0000F00
07C0000F00
07C0000F00
07C0001F00
03C0001F00
03E0003F00
03E0003F80
01F0006F80
01F801EF80
00FC03CF80
007FFF0F80
003FFE1FE0
0007F81FFC
ENDCHAR
STARTCHAR $00FA
ENCODING 250
SWIDTH 300 0
DWIDTH 20 0
BBX 38 47 1 0
BITMAP
0000010000
000003C000
00000FC000
00001FC000
00007F8000
0001FE0000
0007F00000
000F800000
000E000000
0000000000
0000000000
0000000000
0000000000
0000000000
0000000000
00C0000180
FFC001FF80
1FC0007F80
0FC0001F80
07C0001F80
07C0000F80
07C0000F00
07C0000F00
07C0000F00
07C0000F00
07C0000F00
07C0000F00
07C0000F00
07C0000F00
07C0000F00
07C0000F00
07C0000F00
07C0000F00
07C0000F00
07C0000F00
07C0000F00
07C0000F00
07C0000F00
03C0001F00
03E0003F00
03E0003F80
03F0006F80
01F801EF80
00FC03CF80
007FFF8F80
003FFE1FE0
0007F81FFC
ENDCHAR
STARTCHAR $00FB
ENCODING 251
SWIDTH 300 0
DWIDTH 20 0
BBX 38 46 1 0
BITMAP
0000200000
0000F00000
0001F80000
0003FC0000
0007FE0000
000F8F8000
001E07C000
001C01C000
0010004000
0000000000
0000000000
0000000000
0000000000
0000000000
0040000080
FFC001FF80
1FC0003F80
0FC0001F80
07C0001F80
07C0000F80
07C0000F00
07C0000F00
07C0000F00
07C0000F00
07C0000F00
07C0000F00
07C0000F00
07C0000F00
07C0000F00
07C0000F00
07C0000F00
07C0000F00
07C0000F00
07C0000F00
07C0000F00
07C0000F00
07C0001F00
03C0001F00
03E0003F00
03E0003F80
01F0006F80
01F801EF80
00FC03CF80
007FFF0F80
003FFE1FE0
0007F81FFC
ENDCHAR
STARTCHAR $00FC
ENCODING 252
SWIDTH 300 0
DWIDTH 20 0
BBX 38 45 1 0
BITMAP
001E038000
001E07C000
003F07C000
003F07C000
001E07C000
001E038000
0000000000
0000000000
0000000000
0000000000
0000000000
0000000000
0000000000
0040000080
FFC001FF80
1FC0003F80
0FC0001F80
07C0001F80
07C0000F80
07C0000F00
07C0000F00
07C0000F00
07C0000F00
07C0000F00
07C0000F00
07C0000F00
07C0000F00
07C0000F00
07C0000F00
07C0000F00
07C0000F00
07C0000F00
07C0000F00
07C0000F00
07C0000F00
07C0001F00
03C0001F00
03E0003F00
03E0003F80
01F0006F80
01F801EF80
00FC03CF80
007FFF0F80
003FFE1FE0
0007F81FFC
ENDCHAR
STARTCHAR $00FD
ENCODING 253
SWIDTH 254 0
DWIDTH 17 0
BBX 34 64 0 -18
BITMAP
0000004000
000000E000
000003F000
00000FF000
00003FE000
00007F0000
0001FC0000
0007E00000
0007800000
0004000000
0000000000
0000000000
0000000000
0000000000
0000000000
0000000000
FFF803FFC0
3FE000FF80
1FC0007F00
0FC0003E00
07C0007C00
07C0007C00
07C0007800
03E0007800
03E0007000
01E000F000
01F000F000
01F000E000
00F001E000
00F801C000
007803C000
007803C000
007C038000
003C078000
003C078000
001E0F0000
001E0F0000
001F0E0000
000F1E0000
000F1E0000
0007BC0000
0007BC0000
0007F80000
0003F80000
0003F80000
0003F00000
0001F00000
0001F00000
0001E00000
0001E00000
0003C00000
0003C00000
0003C00000
0007800000
0007800000
000F000000
000F000000
001E000000
003C000000
007C000000
00F8000000
03E0000000
3F80000000
1E00000000
ENDCHAR
STARTCHAR $00FE
ENCODING 254
SWIDTH 292 0
DWIDTH 19 0
BBX 36 68 0 -18
BITMAP
0020000000
FFE0000000
1FC0000000
07C0000000
07C0000000
07C0000000
07C0000000
07C0000000
07C0000000
07C0000000
07C0000000
07C0000000
07C0000000
07C0000000
07C0000000
07C0000000
07C0000000
07C0000000
07C03F8000
07C1FFF000
07C3FFFC00
07C7FFFE00
07CF80FF00
07DE003F80
07FC001F80
07F8000FC0
07F00007C0
07E00007E0
07C00003E0
07C00003E0
07C00003F0
07C00001F0
07C00001F0
07C00001F0
07C00001F0
07C00001F0
07C00003F0
07C00003E0
07C00003E0
07E00003E0
07E00007E0
07F00007C0
07F8000FC0
07FC001F80
07DE003F00
07DF80FF00
07CFFFFE00
07C7FFF800
07C1FFE000
07C07F8000
07C0000000
07C0000000
07C0000000
07C0000000
07C0000000
07C0000000
07C0000000
07C0000000
07C0000000
07C0000000
07C0000000
07C0000000
07C0000000
07C0000000
07C0000000
07E0000000
0FF0000000
FFFE000000
ENDCHAR
STARTCHAR $00FF
ENCODING 255
SWIDTH 254 0
DWIDTH 17 0
BBX 34 63 0 -18
BITMAP
0038070000
003C0F8000
007E0F8000
007E0F8000
007C0F8000
003C070000
0000000000
0000000000
0000000000
0000000000
0000000000
0000000000
0000000000
0000000000
8008030040
FFF803FFC0
3FE000FF80
1FC0007F00
0FC0003E00
07C0007C00
07C0007C00
07C0007800
03E0007800
03E0007000
01E000F000
01F000F000
01F000E000
00F001E000
00F801C000
007803C000
007803C000
007C038000
003C078000
003C078000
001E0F0000
001E0F0000
001F0E0000
000F1E0000
000F1E0000
0007BC0000
0007BC0000
0007F80000
0003F80000
0003F80000
0003F00000
0001F00000
0001F00000
0001E00000
0001E00000
0003C00000
0003C00000
0003C00000
0007800000
0007800000
000F000000
000F000000
001E000000
003C000000
007C000000
00F8000000
03E0000000
3F80000000
1E00000000
ENDCHAR
STARTCHAR $010C
ENCODING 268
SWIDTH 330 0
DWIDTH 22 0
BBX 37 58 4 0
BITMAP
0002000800
0003001800
0003C07800
0001F1F000
0000FBE000
00007FC000
00001F8000
00000E0000
0000040000
0000000000
0000000000
0000000000
0000000000
00007FFC00
0007FFFFE0
001FFFFFF0
007F801FF0
00FC0003F0
01F00001E0
07E00000E0
07C0000060
0F80000000
1F00000000
1F00000000
3E00000000
3E00000000
7C00000000
7C00000000
7C00000000
FC00000000
F800000000
F800000000
F800000000
F800000000
F800000000
F800000000
F800000000
F800000000
F800000000
F800000000
FC00000000
FC00000000
FC00000000
7C00000000
7E00000000
7E00000000
3F00000000
3F80000000
1FC0000000
0FE0000000
07F0000008
07F8000038
03FE0000F0
00FFC00FF0
007FFFFFE0
001FFFFF80
0007FFFE00
0000FFE000
ENDCHAR
STARTCHAR $010E
ENCODING 270
SWIDTH 366 0
DWIDTH 24 0
BBX 43 57 3 0
BITMAP
000600100000
000700780000
0003C1F00000
0001F3E00000
0000FF800000
00007F000000
00003E000000
00001C000000
000008000000
000000000000
000000000000
000000000000
800000000000
FFFFFFC00000
1FFFFFF80000
0FFFFFFE0000
07E000FF8000
07E0001FC000
03E00007F000
03E00001F800
03E00000F800
03E000007C00
03E000007E00
03E000003F00
03E000001F00
03E000001F80
03E000000F80
03E000000F80
03E000000FC0
03E000000FC0
03E0000007C0
03E0000007C0
03E0000007C0
03E0000007C0
03E0000007C0
03E0000007E0
03E0000007C0
03E0000007C0
03E0000007C0
03E0000007C0
03E000000FC0
03E000000FC0
03E000000F80
03E000000F80
03E000001F80
03E000001F00
03E000003F00
03E000007E00
03E000007C00
03E00000FC00
03E00001F800
03E00007F000
07E0000FC000
07F0007F8000
07FFFFFE0000
3FFFFFF80000
FFFFFF800000
ENDCHAR
STARTCHAR $0110
ENCODING 272
SWIDTH 366 0
DWIDTH 24 0
BBX 43 45 3 0
BITMAP
800000000000
FFFFFFC00000
1FFFFFF80000
07FFFFFE0000
07E0007F8000
03E0001FE000
03E00007F000
03E00001F800
03E00000FC00
03E000007C00
03E000003E00
03E000003F00
03E000001F00
03E000001F80
03E000000F80
03E000000F80
03E000000FC0
03E0000007C0
03E0000007C0
03E0000007C0
FFFFFE0007C0
FFFFFC0007C0
FFFFFC0007E0
03E0000007E0
03E0000007E0
03E0000007C0
03E0000007C0
03E0000007C0
03E0000007C0
03E000000FC0
03E000000F80
03E000000F80
03E000001F80
03E000001F00
03E000003F00
03E000003E00
03E000007C00
03E00000FC00
03E00001F800
03E00007F000
07E0000FE000
07F0007F8000
07FFFFFE0000
1FFFFFF80000
FFFFFF800000
ENDCHAR
STARTCHAR $011A
ENCODING 282
SWIDTH 284 0
DWIDTH 19 0
BBX 32 57 3 0
BITMAP
00C00200
00F00F00
00783E00
003E7C00
001FF800
000FE000
0007C000
00038000
00010000
00000000
00000000
00000000
FFFFFFFE
FFFFFFFE
0FFFFFFE
07FFFFFE
07E0001E
03E0000E
03E0000E
03E0000E
03E00000
03E00000
03E00000
03E00000
03E00000
03E00000
03E00000
03E00000
03E000C0
03E00080
03E00180
03E00380
03FFFF80
03FFFF80
03FFFF80
03E00180
03E00180
03E00080
03E000C0
03E00000
03E00000
03E00000
03E00000
03E00000
03E00000
03E00000
03E00000
03E00000
03E00003
03E00003
03E00003
03E00007
07E00007
07E0003F
0FFFFFFF
1FFFFFFE
FFFFFFFE
ENDCHAR
STARTCHAR $0131
ENCODING 305
SWIDTH 134 0
DWIDTH 9 0
BBX 15 32 2 0
BITMAP
0040
FFC0
1FC0
0FC0
07C0
07C0
07C0
07C0
07C0
07C0
07C0
07C0
07C0
07C0
07C0
07C0
07C0
07C0
07C0
07C0
07C0
07C0
07C0
07C0
07C0
07C0
07C0
07C0
07C0
07E0
0FF0
FFFE
ENDCHAR
STARTCHAR $0132
ENCODING 306
SWIDTH 330 0
DWIDTH 22 0
BBX 38 56 3 -11
BITMAP
FFFF03FFFC
FFFF03FFFC
0FF8003FE0
07F0001FC0
07E0001F80
07E0001F80
03E0000F80
03E0000F80
03E0000F80
03E0000F80
03E0000F80
03E0000F80
03E0000F80
03E0000F80
03E0000F80
03E0000F80
03E0000F80
03E0000F80
03E0000F80
03E0000F80
03E0000F80
03E0000F80
03E0000F80
03E0000F80
03E0000F80
03E0000F80
03E0000F80
03E0000F80
03E0000F80
03E0000F80
03E0000F80
03E0000F80
03E0000F80
03E0000F80
03E0000F80
03E0000F00
03E0000F00
03E0000F00
03E0000F00
03E0000F00
07E0000F00
07E0000F00
0FF0000F00
FFFF001F00
FFFF001F00
0000001F00
0000001F00
0000001E00
0000001E00
0000003C00
0000003C00
0000007800
000000F800
000007F000
000007C000
0000060000
ENDCHAR
STARTCHAR $0133
ENCODING 307
SWIDTH 262 0
DWIDTH 17 0
BBX 28 63 2 -18
BITMAP
078001C0
0FC003E0
0FC007F0
0FC007F0
0FC003E0
078001C0
00000000
00000000
00000000
00000000
00000000
00000000
00000000
00000000
00400010
FFC03FF0
1FC007F0
0FC003F0
07C003F0
07C001F0
07C001E0
07C001E0
07C001E0
07C001E0
07C001E0
07C001E0
07C001E0
07C001E0
07C001E0
07C001E0
07C001E0
07C001E0
07C001E0
07C001E0
07C001E0
07C001E0
07C001E0
07C001E0
07C001E0
07C001E0
07C001E0
07C001E0
07E001E0
0FF001E0
FFFE01E0
000001E0
000001E0
000001E0
000001E0
000001E0
000001E0
000001E0
000001E0
000003C0
000003C0
000003C0
00000380
00000380
00000700
00000E00
00001E00
0000F800
0000F000
ENDCHAR
STARTCHAR $0143
ENCODING 323
SWIDTH 374 0
DWIDTH 25 0
BBX 44 58 3 0
BITMAP
000000020000
000000078000
0000001F8000
0000007F8000
000001FF0000
000003F80000
00000FC00000
00003F000000
000038000000
000000000000
000000000000
000000000000
000000000000
FFF00007FFF0
3FF80003FFE0
0FF800007F00
07FC00003E00
07FC00003E00
03FE00003E00
03FE00003E00
03FF00003E00
03FF00003E00
03DF80003E00
03DFC0003E00
03CFC0003E00
03C7E0003E00
03C7E0003E00
03C3F0003E00
03C1F8003E00
03C1F8003E00
03C0FC003E00
03C07E003E00
03C07E003E00
03C03F003E00
03C01F003E00
03C01F803E00
03C00FC03E00
03C007C03E00
03C007E03E00
03C003F03E00
03C001F03E00
03C001F83E00
03C000FC3E00
03C0007E3E00
03C0007E3E00
03C0003F3E00
03C0001FBE00
03C0001FBE00
03C0000FFE00
03C00007FE00
03C00007FE00
03C00003FE00
03C00001FE00
07C00001FE00
07E00000FE00
0FE000007E00
FFFE00007E00
FFFF00003E00
ENDCHAR
STARTCHAR $0152
ENCODING 338
SWIDTH 486 0
DWIDTH 32 0
BBX 58 45 4 0
BITMAP
0000FFFFFFFFFF00
0007FFFFFFFFFF00
003FFFFFFFFFFF00
007FFFFFF8000F00
01FF801FF8000700
03FC0007F8000300
07F00003F8000300
0FE00003F8000300
0F800001F0000000
1F800001F0000000
3F000001F0000000
3E000001F0000000
3E000000F0000000
7C000000F0000000
7C000000F0000000
7C000000F0006000
FC000000F0006000
F8000000F000E000
F8000000F000E000
F8000000FFFFE000
F8000000FFFFE000
F8000000FFFFE000
F8000000F001E000
F8000000F000E000
F8000000F0006000
F8000000F0006000
F8000000F0006000
F8000000F0000000
FC000000F0000000
FC000000F0000000
7C000000F0000000
7C000000F0000000
7E000000F0000000
3E000000F0000000
3F000000F0000000
1F000000F0000000
1F800000F00000C0
0FC00001F0000180
07E00001F8000180
03F80001F8000180
01FE0001F8000380
007FC01FF8000F80
003FFFFFFFFFFF80
0007FFFFFFFFFF80
0000FFFFFFFFFF00
ENDCHAR
STARTCHAR $0153
ENCODING 339
SWIDTH 472 0
DWIDTH 31 0
BBX 57 32 3 0
BITMAP
000FF80001FE0000
007FFF000FFFC000
01FFFFC03FFFF000
03F007F07E00F800
07C003F8F8007C00
0F8001FDF0003E00
1F0000FFE0001F00
3E00007FE0001F00
3E00003FC0001F00
7C00003FC0000F80
7C00001F80001F80
7C00001FFFFFFF80
F800001FFFFFFF80
F800000FFFFFFF00
F800000F80000000
F800000F80000000
F800000F80000000
F800000F80000000
F800000F80000000
F800000F80000000
7C00001FC0000000
7C00001FC0000000
7E00001FE0000000
3E00003FE0000000
3F00003FF0000000
1F00007DF8000000
0F8000F9FE000200
07E001F0FFC01E00
03F007E07FFFFE00
01FFFFC01FFFF800
007FFF0007FFE000
000FF80001FF0000
ENDCHAR
STARTCHAR $0160
ENCODING 352
SWIDTH 276 0
DWIDTH 18 0
BBX 30 58 4 0
BITMAP
01000400
01C00C00
01E03C00
00F8F800
007FF000
003FE000
000FC000
00078000
00020000
00000000
00000000
00000000
00000000
003FF800
03FFFFC0
07FFFFE0
1F800FE0
3F0003E0
3E0001E0
7C0001C0
7C0000C0
780000C0
F8000000
F8000000
F8000000
FC000000
FC000000
7E000000
7F000000
7FC00000
3FF80000
1FFF0000
0FFFE000
07FFF800
01FFFE00
007FFF80
000FFFC0
0001FFE0
00003FF0
00000FF0
000007F8
000001F8
000001FC
000000FC
000000FC
0000007C
0000007C
6000007C
6000007C
E00000F8
F00000F8
F00001F0
F80001F0
FC0007E0
FF000FC0
7FFFFF00
0FFFFC00
00FFE000
ENDCHAR
STARTCHAR $0161
ENCODING 353
SWIDTH 216 0
DWIDTH 14 0
BBX 24 46 3 0
BITMAP
0C0030
0F00F0
0781E0
03E7C0
01FF80
00FF00
003E00
001800
000800
000000
000000
000000
000000
000000
01FF00
07FFE0
1FFFFC
3F00FC
3C003C
7C0018
780018
780018
F80000
7C0000
7C0000
7E0000
7F8000
3FF800
1FFF80
07FFF0
01FFF8
001FFC
0001FE
00007E
00003F
00001F
60001F
60001F
60001F
70001E
70003E
78007C
FC00F8
FFFFF0
3FFFC0
03FF00
ENDCHAR
STARTCHAR $0178
ENCODING 376
SWIDTH 306 0
DWIDTH 20 0
BBX 43 57 -1 0
BITMAP
0001C0700000
0003E0780000
0003E0FC0000
0003E0FC0000
0003E0F80000
0001C0700000
000000000000
000000000000
000000000000
000000000000
000000000000
000000000000
F00780300060
FFFF803FFFE0
0FF80003FF00
03F00001FC00
03F80001F800
01F80001F000
00FC0001E000
00FC0003C000
007E0003C000
003E00078000
003F00070000
001F000F0000
000F800E0000
000F801E0000
0007C01C0000
0007C0380000
0003E0780000
0001E0700000
0001F0F00000
0000F8E00000
0000F9C00000
00007DC00000
00007F800000
00003F800000
00003F000000
00001F000000
00001F000000
00001F000000
00001F000000
00001F000000
00001F000000
00001F000000
00001F000000
00001F000000
00001F000000
00001F000000
00001F000000
00001F000000
00001F000000
00001F000000
00001F000000
00003F800000
00003F800000
0003FFF80000
0007FFFC0000
ENDCHAR
STARTCHAR $017D
ENCODING 381
SWIDTH 306 0
DWIDTH 20 0
BBX 36 57 2 0
BITMAP
001800C000
003C03C000
001F078000
000FDF0000
0003FE0000
0001FC0000
0000F80000
0000700000
0000200000
0000000000
0000000000
0000000000
1FFFFFFFF0
1FFFFFFFE0
1FFFFFFFE0
3FFFFFFFC0
3C00003F80
3800003F00
3000007F00
3000007E00
000000FC00
000001F800
000001F800
000003F000
000003E000
000007C000
00000FC000
00000F8000
00001F0000
00001F0000
00003E0000
00007C0000
00007C0000
0000F80000
0001F00000
0001F00000
0003E00000
0007C00000
0007C00000
000F800000
001F000000
001F000000
003E000000
007C000000
00FC000000
00F8000000
01F8000000
03F0000030
03E0000030
07E0000070
0FC0000070
1FC00000F0
3F800003F0
7FFFFFFFE0
7FFFFFFFE0
FFFFFFFFE0
FFFFFFFFE0
ENDCHAR
STARTCHAR $017E
ENCODING 382
SWIDTH 246 0
DWIDTH 16 0
BBX 27 46 3 0
BITMAP
02000800
07003800
03C07800
01E1F000
00FFC000
007F8000
003F0000
001E0000
000C0000
00000000
00000000
00000000
00000000
00000000
00000000
7FFFFFC0
7FFFFFC0
7FFFFF80
70007F00
6000FF00
E000FE00
C001FC00
4001F800
0003F800
0003F000
0007E000
0007E000
000FC000
001F8000
001F8000
003F0000
003E0000
007E0000
00FC0000
00F80000
01F80000
03F00000
07F00000
07E00060
0FC00060
1FC000E0
3F8000C0
3F8001C0
7FFFFFC0
FFFFFFC0
FFFFFFC0
ENDCHAR
STARTCHAR $0192
ENCODING 402
SWIDTH 330 0
DWIDTH 22 0
BBX 39 68 2 -18
BITMAP
00000007F0
0000001FFE
0000003FFE
000000783E
000000E01E
000001E01C
000003C00C
000003C00C
0000078000
0000078000
00000F8000
00000F0000
00000F0000
00001F0000
00001F0000
00001F0000
00001E0000
00003E0000
00003E0000
00003E0000
0007FFFF00
000FFFFE00
000FFFFE00
00007C0000
00007C0000
00007C0000
0000780000
0000F80000
0000F80000
0000F80000
0000F80000
0000F00000
0001F00000
0001F00000
0001F00000
0001E00000
0001E00000
0003E00000
0003E00000
0003E00000
0003C00000
0003C00000
0007C00000
0007C00000
0007C00000
0007800000
0007800000
000F800000
000F800000
000F000000
000F000000
000F000000
001F000000
001E000000
001E000000
003E000000
003C000000
003C000000
0078000000
0078000000
00F0000000
00F0000000
01E0000000
03C0000000
7F80000000
FF00000000
FE00000000
F800000000
ENDCHAR
STARTCHAR $0237
ENCODING 567
SWIDTH 126 0
DWIDTH 8 0
BBX 13 49 -1 -18
BITMAP
0008
1FF0
07F0
01F0
01F0
01F0
01F0
01F0
00F0
00F0
00F0
00F0
00F0
00F0
00F0
00F0
00F0
00F0
00F0
00F0
00F0
00F0
00F0
00F0
00F0
00F0
00F0
00F0
00F0
00F0
00F0
01F0
01F0
01F0
01F0
01F0
01F0
01F0
01E0
01E0
01E0
01C0
01C0
0380
0380
0700
0E00
FC00
F000
ENDCHAR
STARTCHAR $0259
ENCODING 601
SWIDTH 262 0
DWIDTH 17 0
BBX 29 32 3 0
BITMAP
007F8000
03FFF000
0FFFFC00
3FFFFF00
7C01FF80
60003FC0
00000FC0
000007E0
000003F0
000003F0
000001F0
000001F8
000000F8
000000F8
000000F8
000000F8
000000F8
000000F8
FFFFFFF8
FFFFFFF8
FFFFFFF8
F80001F0
F80001F0
FC0001E0
7C0003E0
7C0007C0
3E0007C0
1F001F80
0F803F00
07FFFC00
01FFF000
007FC000
ENDCHAR
STARTCHAR $02C6
ENCODING 710
SWIDTH 120 0
DWIDTH 8 0
BBX 16 9 0 36
BITMAP
0180
03C0
07E0
0FF0
1FF8
7C3C
F01E
E007
8002
ENDCHAR
STARTCHAR $02C7
ENCODING 711
SWIDTH 120 0
DWIDTH 8 0
BBX 16 9 0 37
BITMAP
8002
E007
F01E
7C3C
1FF8
0FF0
07E0
03C0
0180
ENDCHAR
STARTCHAR $02DA
ENCODING 730
SWIDTH 82 0
DWIDTH 5 0
BBX 11 10 0 36
BITMAP
1F00
3F80
71C0
E0E0
E0E0
E0E0
E0E0
71C0
7FC0
1F00
ENDCHAR
STARTCHAR $02DC
ENCODING 732
SWIDTH 156 0
DWIDTH 10 0
BBX 21 7 0 39
BITMAP
000008
0FE018
3FFFF0
7FFFF0
7FFFE0
C07F80
800000
ENDCHAR
STARTCHAR $03BC
ENCODING 956
SWIDTH 306 0
DWIDTH 20 0
BBX 37 40 2 -8
BITMAP
0040000100
FFC003FF80
1FC0007F00
0FC0001F00
0FC0001F00
07C0001F00
07C0001F00
07C0001F00
0780000F00
0780000F00
0780000F00
0780000F00
0780000F00
0780000F00
0780000F00
0780000F00
0780000F00
0780000F00
0780000F00
0780000F00
0780000F00
07C0001F00
07C0001F00
07C0001F00
07C0003F00
0FE0007F00
0FE000FF00
0FF001DF00
0FFC079F00
0FFFFF1F80
0F3FFE1FC0
1F0FF01FF8
1E00000000
1E00000000
3E00000000
3E00000000
3E00000000
7E00000000
7E00000000
3C00000000
ENDCHAR
STARTCHAR $2013
ENCODING 8211
SWIDTH 276 0
DWIDTH 18 0
BBX 28 4 4 14
BITMAP
7FFFFFF0
7FFFFFF0
7FFFFFF0
FFFFFFF0
ENDCHAR
STARTCHAR $2014
ENCODING 8212
SWIDTH 396 0
DWIDTH 26 0
BBX 44 4 4 14
BITMAP
7FFFFFFFFFF0
7FFFFFFFFFF0
7FFFFFFFFFF0
FFFFFFFFFFF0
ENDCHAR
STARTCHAR $2018
ENCODING 8216
SWIDTH 96 0
DWIDTH 6 0
BBX 6 12 4 38
BITMAP
0C
1C
38
38
78
78
F8
F8
F8
F8
F8
F0
ENDCHAR
STARTCHAR $2019
ENCODING 8217
SWIDTH 90 0
DWIDTH 6 0
BBX 6 12 4 38
BITMAP
3C
7C
7C
7C
7C
7C
78
78
70
60
C0
80
ENDCHAR
STARTCHAR $201A
ENCODING 8218
SWIDTH 104 0
DWIDTH 7 0
BBX 7 12 3 -7
BITMAP
1C
7E
7E
7E
3E
3C
3C
38
78
70
60
C0
ENDCHAR
STARTCHAR $201C
ENCODING 8220
SWIDTH 172 0
DWIDTH 11 0
BBX 16 12 4 38
BITMAP
0C01
1C03
3806
380E
781E
781E
F83E
F83E
F83E
F83E
F83E
F03C
ENDCHAR
STARTCHAR $201D
ENCODING 8221
SWIDTH 164 0
DWIDTH 11 0
BBX 16 12 4 38
BITMAP
3C0F
7C1F
7C1F
7C1F
7C1F
7C1F
781E
781E
701C
601C
C038
8030
ENDCHAR
STARTCHAR $201E
ENCODING 8222
SWIDTH 186 0
DWIDTH 12 0
BBX 18 12 3 -7
BITMAP
1C0780
7E0F80
7E0FC0
7E0FC0
3E0F80
3C0780
3C0780
380F00
780F00
700E00
600C00
C01800
ENDCHAR
STARTCHAR $2020
ENCODING 8224
SWIDTH 240 0
DWIDTH 16 0
BBX 26 40 3 7
BITMAP
003F0000
003F0000
003F0000
003F0000
003E0000
003E0000
003E0000
003E0000
003E0000
003E0000
001E0000
001E0000
001E0000
801E00C0
FFFFFFC0
FFFFFFC0
FFFFFFC0
FFFFFFC0
C01E01C0
001E0000
001E0000
001E0000
001E0000
001E0000
001E0000
001E0000
001E0000
001E0000
001E0000
001E0000
003E0000
003E0000
003E0000
003E0000
003E0000
003E0000
003F0000
003F0000
003F0000
003F0000
ENDCHAR
STARTCHAR $2021
ENCODING 8225
SWIDTH 254 0
DWIDTH 17 0
BBX 26 52 4 -5
BITMAP
003F0000
003F0000
003F0000
003F0000
003F0000
001F0000
001F0000
001E0000
001E0000
001E0000
001E0000
001E0000
001E0000
C01E0040
FFFFFFC0
FFFFFFC0
FFFFFFC0
FFFFFFC0
E01E00C0
001E0000
001E0000
001E0000
001E0000
001E0000
001E0000
001E0000
001E0000
001E0000
001E0000
001E0000
001E0000
001E0000
001E0000
001E0000
C01E00C0
FFFFFFC0
FFFFFFC0
FFFFFFC0
C01E00C0
001E0000
001E0000
001E0000
001E0000
001E0000
001E0000
001F0000
003F0000
003F0000
003F0000
003F0000
003F0000
003F0000
ENDCHAR
STARTCHAR $2022
ENCODING 8226
SWIDTH 164 0
DWIDTH 11 0
BBX 9 9 6 12
BITMAP
1E00
3F00
7F80
FF80
FF80
FF80
7F80
7F00
1E00
ENDCHAR
STARTCHAR $2026
ENCODING 8230
SWIDTH 300 0
DWIDTH 20 0
BBX 32 6 4 0
BITMAP
3803C01C
7C07E03E
FC07E03F
FC07E07F
FC07E03E
7803C01C
ENDCHAR
STARTCHAR $2030
ENCODING 8240
SWIDTH 570 0
DWIDTH 38 0
BBX 70 46 3 0
BITMAP
0000000007C0000000
01F800000F80000000
07FE00000F00000000
0FFF00001E00000000
1E0780003E00000000
3C03C0003C00000000
3801C0007800000000
7001E000F000000000
7000E000F000000000
7000E001E000000000
F000E003C000000000
E000F0038000000000
E000F0078000000000
F000F00F0000000000
E000F01E0000000000
F000E01C0000000000
F000E03C0000000000
7000E0780000000000
7001E0700000000000
7801C0F00000000000
3C03C1E00000000000
1E0783C03F00003F00
1FFF0380FFC000FFC0
07FE0781FFE001FFE0
03F80F03C0F003C0F0
00001E038078078070
00001E070038070078
00003C07003C0E0038
0000780E001C0E003C
0000700E001C0E001C
0000F00E001E1E001C
0001E00E000E1C001C
0003C01E000E1C001C
0003C01E000E1C001C
0007801E000E1C001C
000F000E001E1C001C
001E000E001E1E001C
001E000E001C1E001C
003C000E001C0E003C
0078000F003C0E0038
00F8000700380F0078
01F000078078078070
03F00003C0F003C0F0
07E00001FFE003FFE0
00000000FFC000FFC0
000000003F00007F00
ENDCHAR
STARTCHAR $2039
ENCODING 8249
SWIDTH 150 0
DWIDTH 10 0
BBX 14 24 3 4
BITMAP
007C
00F8
01F0
01E0
03C0
0780
0700
0F00
1E00
3C00
7800
7800
F800
7800
3C00
1E00
0F00
0700
0780
03C0
01E0
01F0
00F8
007C
ENDCHAR
STARTCHAR $203A
ENCODING 8250
SWIDTH 150 0
DWIDTH 10 0
BBX 13 24 4 4
BITMAP
F000
F800
7C00
3C00
1E00
0F00
0780
0780
03C0
01E0
00F0
00F8
0078
00F0
01E0
03C0
0380
0780
0F00
1E00
3C00
7C00
F800
F000
ENDCHAR
STARTCHAR $2044
ENCODING 8260
SWIDTH 276 0
DWIDTH 18 0
BBX 37 44 0 1
BITMAP
00000000F8
00000001F0
00000003E0
00000003C0
0000000780
0000000F80
0000000F00
0000001E00
0000003C00
0000003C00
0000007800
000000F000
000000E000
000001E000
000003C000
0000078000
0000070000
00000F0000
00001E0000
00001C0000
00003C0000
0000780000
0000F00000
0000E00000
0001E00000
0003C00000
0007800000
0007000000
000F000000
001E000000
001C000000
003C000000
0078000000
00F0000000
00F0000000
01E0000000
03C0000000
07C0000000
0F80000000
0F00000000
1F00000000
3E00000000
7C00000000
FC00000000
ENDCHAR
STARTCHAR $2070
ENCODING 8304
SWIDTH 194 0
DWIDTH 13 0
BBX 20 25 3 20
BITMAP
01F800
07FE00
0FFF00
1E0780
3C03C0
3801C0
7801E0
7000E0
7000E0
7000E0
F000F0
F000F0
F000F0
F000F0
F000F0
F000E0
7000E0
7000E0
7801E0
3801C0
3C03C0
1E0780
0FFF00
07FE00
01F800
ENDCHAR
STARTCHAR $2074
ENCODING 8308
SWIDTH 164 0
DWIDTH 11 0
BBX 17 25 2 20
BITMAP
007800
00F800
00F800
01F800
01B800
03B800
073800
063800
0E3800
0C3800
1C3800
183800
303800
703800
7FFE00
FFFE00
FFFE00
003800
003800
003800
003800
003800
003C00
007C00
03FF80
ENDCHAR
STARTCHAR $2080
ENCODING 8320
SWIDTH 202 0
DWIDTH 13 0
BBX 19 25 4 0
BITMAP
03F000
07FC00
1FFF00
3C0F00
380780
7803C0
7001C0
F001C0
E001E0
E000E0
E000E0
E000E0
E000E0
E000E0
E000E0
E000E0
E001E0
F001C0
7001C0
7803C0
380780
3E0F00
1FFE00
0FFC00
03F000
ENDCHAR
STARTCHAR $2081
ENCODING 8321
SWIDTH 126 0
DWIDTH 8 0
BBX 11 25 3 0
BITMAP
0200
0700
0E00
3E00
FE00
8E00
0E00
0E00
0E00
0E00
0E00
0E00
0E00
0E00
0E00
0E00
0E00
0E00
0E00
0E00
0E00
0E00
0F00
0F00
7FE0
ENDCHAR
STARTCHAR $2082
ENCODING 8322
SWIDTH 172 0
DWIDTH 11 0
BBX 16 25 3 0
BITMAP
0180
0FF8
3FFC
781E
700E
600E
600E
600E
000E
000E
001C
003C
0038
0078
00F0
01E0
01C0
0380
0700
0E01
1C01
3C03
7FFF
FFFE
FFFE
ENDCHAR
STARTCHAR $2083
ENCODING 8323
SWIDTH 172 0
DWIDTH 11 0
BBX 16 25 3 0
BITMAP
07E0
1FF8
3FFC
381C
600E
600E
600E
000E
000C
001C
0038
00F0
013C
000E
0007
0007
0007
0007
4007
6007
E00E
701E
3FFC
1FF8
07E0
ENDCHAR
STARTCHAR $2084
ENCODING 8324
SWIDTH 156 0
DWIDTH 10 0
BBX 16 25 2 0
BITMAP
0078
00F8
00F8
01B8
03B8
0338
0738
0638
0E38
1C38
1838
3838
3038
7038
FFFE
FFFE
FFFE
0038
0038
0038
0038
0038
0078
007C
03FF
ENDCHAR
STARTCHAR $20AC
ENCODING 8364
SWIDTH 314 0
DWIDTH 21 0
BBX 36 45 3 0
BITMAP
00001FF800
0000FFFF80
0003FFFFE0
0007FFFFE0
000FE00FC0
001F8003C0
003E0001C0
007C0001C0
00FC0001C0
00F8000000
01F0000000
01F0000000
03E0000000
03E0000000
03E0000000
03E0000000
07C0000000
FFFFFFF800
FFFFFFF800
FFFFFFF000
07C0000000
07C0000000
07C0000000
07C0000000
FFFFFFF000
FFFFFFE000
FFFFFFE000
07C0000000
07C0000000
07E0000000
03E0000000
03E0000000
03F0000000
01F0000000
01F8000000
00F8000000
00FC000000
007E000010
003F000030
001FC000E0
000FF007E0
0007FFFFC0
0003FFFF80
0000FFFE00
00001FF000
ENDCHAR
STARTCHAR $2122
ENCODING 8482
SWIDTH 390 0
DWIDTH 26 0
BBX 41 19 6 25
BITMAP
FFFC7E003F00
FFFC1F003E00
C70C1F007C00
83041F007C00
03001B807C00
03001B80CC00
03001980CC00
030019C0CC00
030019C18C00
030018C18C00
030018E30C00
030018E30C00
030018630E00
030018760E00
030038760E00
0700303C0E00
0780383C0E00
0F80783C1E00
1FE0FC003F80
ENDCHAR
STARTCHAR $2212
ENCODING 8722
SWIDTH 284 0
DWIDTH 19 0
BBX 28 4 5 14
BITMAP
7FFFFFF0
FFFFFFF0
FFFFFFE0
FFFFFFE0
ENDCHAR
STARTCHAR $2215
ENCODING 8725
SWIDTH 254 0
DWIDTH 17 0
BBX 37 44 -1 1
BITMAP
00000001F8
00000001F0
00000003E0
00000007C0
0000000780
0000000F00
0000000E00
0000001E00
0000003C00
0000007800
0000007000
000000F000
000001E000
000001C000
000003C000
0000078000
00000F0000
00000E0000
00001E0000
00003C0000
0000780000
0000780000
0000F00000
0001E00000
0001C00000
0003C00000
0007800000
000F000000
000E000000
001E000000
003C000000
0078000000
0078000000
00F0000000
01E0000000
03E0000000
03C0000000
0780000000
0F80000000
1F00000000
3E00000000
3E00000000
7C00000000
F800000000
ENDCHAR
STARTCHAR $2219
ENCODING 8729
SWIDTH 112 0
DWIDTH 7 0
BBX 7 7 4 13
BITMAP
10
7C
7E
FE
7E
7C
38
ENDCHAR
STARTCHAR FB01
ENCODING 64257
SWIDTH 306 0
DWIDTH 20 0
BBX 37 50 2 0
BITMAP
0001FF0000
000FFFE000
001FFFF800
003C03F800
007800F800
00F0007800
01E0003800
01E0003800
01C0000000
03C0000000
03C0000000
03C0000000
03C0000000
03C0000000
03C0000000
03C0000000
07C0000000
07C0000000
07C0000000
1FFFFFFF80
FFFFFFFF00
FFFFFFFF00
07C0001F00
07C0000F00
07C0000F00
07C0000F00
07C0000F00
07C0000F00
07C0000F00
07C0000F00
07C0000F00
07C0000F00
07C0000F00
07C0000F00
07C0000F00
07C0000F00
07C0000F00
07C0000F00
07C0000F00
07C0000F00
07C0000F00
07C0000F00
07C0000F00
07C0000F00
07C0000F00
07C0001F80
07C0001F80
07E0001F80
0FF0003FC0
FFFF01FFF8
ENDCHAR
STARTCHAR FB02
ENCODING 64258
SWIDTH 306 0
DWIDTH 20 0
BBX 37 50 2 0
BITMAP
0001FF8100
000FFFFF00
001FFFFF00
003E01FF00
0078007F00
00F0003F00
00E0001F00
01E0001F00
01C0001F00
03C0001F00
03C0001F00
03C0001F00
03C0001F00
03C0001F00
03C0001F00
03C0001F00
07C0001F00
07C0001F00
07C0001F00
07FFE01F00
FFFFE01F00
FFFFE01F00
07C0001F00
07C0001F00
07C0001F00
07C0001F00
07C0001F00
07C0001F00
07C0001F00
07C0001F00
07C0001F00
07C0001F00
07C0001F00
07C0001F00
07C0001F00
07C0001F00
07C0001F00
07C0001F00
07C0001F00
07C0001F00
07C0001F00
07C0001F00
07C0001F00
07C0001F00
07C0001F00
07C0001F00
07C0001F00
07E0003F80
1FF8007FE0
FFFF03FFF8
ENDCHAR
ENDFONT
